<svg xmlns="http://www.w3.org/2000/svg" xmlns:v="https://svgstorm.com"
viewBox = "0 0 512 512"
width="512"
height="512">
<g fill="None" fill-opacity="0.0" stroke="#000000" stroke-opacity="0.00" stroke-width="0.3"><path d="
M 0.00 512.00 
L 512.00 512.00
L 512.00 0.00
L 0.00 0.00
L 0.00 512.00
M 266.00 92.00 
C 276.18 92.00 288.23 93.52 297.67 95.33 C 307.11 97.14 315.98 99.94 324.23 103.77 C 332.47 107.61 341.50 110.43 346.00 117.00
C 333.66 119.41 325.27 131.83 313.31 123.69 C 301.34 115.56 287.08 118.22 274.00 114.00
C 272.01 113.86 269.98 114.18 268.00 114.00
C 257.87 113.07 245.79 112.99 235.99 114.99 C 226.19 116.99 215.61 118.24 206.78 121.78 C 197.95 125.32 189.88 128.46 182.92 133.92 C 175.95 139.37 167.52 141.00 161.75 147.75 C 155.99 154.51 148.85 158.58 143.75 165.75 C 138.65 172.92 133.44 179.18 129.08 187.08 C 124.72 194.97 120.06 201.53 118.07 211.07 C 116.09 220.62 111.09 229.77 112.00 241.00 C 112.91 252.23 105.54 256.50 98.00 263.00
C 96.11 264.63 93.98 266.36 92.00 268.00
C 90.80 269.70 89.01 271.95 87.00 273.00
C 78.84 194.97 132.10 120.00 206.00 98.00
C 207.66 97.49 209.26 97.39 211.00 97.00
C 223.33 94.26 235.82 92.24 249.00 91.00
C 254.70 90.47 261.09 91.52 266.00 92.00
M 388.00 166.00 
C 386.24 165.89 380.43 159.43 379.00 158.00
C 368.11 147.11 356.48 135.91 344.00 128.00
C 348.05 121.20 353.94 121.24 361.02 118.02 C 368.11 114.81 375.00 114.57 383.01 112.01 C 391.02 109.44 399.41 109.77 398.00 120.00 C 396.59 130.23 398.90 137.57 396.02 146.02 C 393.14 154.48 395.65 162.14 388.00 166.00
M 228.00 123.00 
C 232.41 124.76 229.48 134.18 225.00 132.00 C 220.52 129.81 223.15 121.07 228.00 123.00
M 276.00 142.00 
C 274.07 140.93 274.08 141.30 272.00 139.00
C 270.21 137.01 267.84 136.89 267.00 134.00
C 272.77 133.80 276.88 129.12 277.00 124.00
C 281.01 126.39 281.16 134.06 288.00 134.00
C 284.31 135.85 278.47 148.32 276.00 142.00
M 271.00 152.00 
C 265.38 154.39 259.46 154.39 253.77 157.77 C 248.09 161.15 250.30 170.52 245.00 172.00
C 246.66 158.48 233.43 153.40 223.00 152.00
C 234.63 150.36 246.36 143.40 246.00 130.00
C 249.33 133.55 248.65 141.06 253.75 145.25 C 258.85 149.44 265.57 148.72 271.00 152.00
M 211.00 149.00 
C 209.28 147.34 208.71 144.61 207.00 143.00
C 205.75 142.29 202.12 143.15 203.00 140.00
C 207.49 138.87 214.82 137.68 213.00 131.00
C 216.11 135.22 223.08 137.96 225.00 143.00
C 220.37 143.17 216.18 146.80 215.00 151.00
C 213.66 149.29 211.96 149.97 211.00 149.00
M 364.00 153.00 
C 370.81 158.82 377.00 164.70 382.00 172.00
C 382.34 172.50 382.64 173.61 383.00 174.00
C 387.52 178.94 376.37 193.24 373.22 200.22 C 370.07 207.21 361.79 215.80 356.25 223.25 C 350.71 230.70 342.00 235.63 334.75 241.75 C 327.51 247.88 318.19 254.48 310.75 246.25 C 303.31 238.02 296.79 235.06 289.00 228.00
C 287.80 226.91 285.53 225.16 284.00 224.00
C 278.99 220.20 273.99 215.65 269.00 212.00
C 279.64 183.17 299.36 155.18 326.00 138.00
C 327.50 137.02 329.51 135.93 331.00 135.00
C 336.93 131.29 342.29 135.85 348.23 139.77 C 354.17 143.69 358.65 148.42 364.00 153.00
M 215.00 175.00 
C 218.02 175.50 221.92 174.44 224.00 177.00
C 220.37 179.12 215.16 178.55 211.00 180.00
C 198.01 182.37 192.48 190.40 190.00 203.00
C 189.42 205.93 189.76 209.75 188.00 212.00
C 185.52 210.30 186.01 206.77 186.00 204.00
C 182.78 184.54 169.54 177.94 151.00 177.00
C 159.26 172.45 171.03 175.66 177.92 167.92 C 184.80 160.17 185.66 149.85 187.00 140.00
C 190.91 145.93 190.15 155.97 194.77 163.23 C 199.40 170.49 206.33 173.99 215.00 175.00
M 406.00 285.00 
C 409.14 270.86 410.43 253.19 407.01 238.99 C 403.59 224.79 402.95 211.62 395.08 198.92 C 387.20 186.23 395.80 175.18 400.00 162.00
C 406.83 169.22 411.71 177.61 416.31 187.69 C 420.90 197.78 423.73 207.63 426.93 219.07 C 430.13 230.51 432.37 241.60 433.00 255.00 C 433.63 268.40 431.39 279.47 428.22 292.22 C 425.05 304.97 416.28 286.21 406.00 285.00
M 275.00 173.00 
C 275.14 178.16 265.37 177.11 267.00 184.00
C 262.60 185.94 263.63 177.59 261.00 182.00
C 260.19 176.79 254.61 177.08 254.00 173.00
C 259.44 173.34 263.45 169.11 264.00 164.00
C 268.58 165.20 268.09 174.36 275.00 173.00
M 233.00 182.00 
C 237.17 184.82 232.28 193.01 227.78 189.22 C 223.28 185.43 228.78 179.15 233.00 182.00
M 138.00 200.00 
C 135.80 185.09 152.02 200.85 138.00 200.00
M 251.00 223.00 
C 247.11 228.24 243.08 226.67 237.00 227.00
C 219.59 227.94 206.91 240.22 196.00 252.00
C 197.96 219.82 230.75 194.21 263.00 202.00
C 261.72 210.04 254.16 215.54 251.00 223.00
M 157.00 208.00 
C 159.13 216.88 160.35 222.42 170.00 225.00
C 172.87 225.77 176.73 225.40 179.00 227.00
C 177.15 230.66 172.02 228.07 169.00 230.00
C 159.10 232.68 157.64 241.77 155.00 250.00
C 152.71 244.61 152.90 238.44 148.25 233.75 C 143.60 229.07 135.72 230.51 132.00 227.00
C 140.95 225.06 154.75 221.79 153.00 209.00
C 153.35 207.13 154.73 205.19 154.00 203.00
C 156.89 202.59 157.30 205.89 157.00 208.00
M 129.00 214.00 
C 126.77 210.20 129.49 202.31 134.25 206.76 C 139.00 211.20 132.79 214.45 129.00 214.00
M 393.00 219.00 
C 395.97 217.89 397.41 220.90 400.00 221.00
C 398.13 225.79 389.76 224.75 390.00 232.00
C 384.66 232.72 387.86 224.96 383.30 224.70 C 378.73 224.45 375.04 220.88 381.01 220.01 C 386.98 219.14 384.94 215.17 388.00 212.00
C 391.40 212.13 391.71 216.63 393.00 219.00
M 261.00 225.00 
C 260.39 222.08 263.39 220.57 264.00 218.00
C 271.19 222.19 276.95 227.98 283.75 233.25 C 290.55 238.52 295.53 244.87 303.25 249.75 C 310.96 254.64 313.67 267.76 300.75 257.25 C 287.82 246.75 274.00 235.27 261.00 225.00
M 376.00 269.00 
C 375.23 272.27 376.31 275.86 375.00 279.00
C 371.59 278.42 373.28 272.72 372.00 270.00
C 369.74 257.86 360.75 254.44 350.00 252.00
C 363.29 251.22 374.50 242.80 374.00 229.00
C 377.45 233.49 375.92 241.54 381.25 245.75 C 386.57 249.97 393.37 249.52 399.00 252.00
C 389.66 254.76 378.50 257.72 376.00 269.00
M 289.00 276.00 
C 284.09 277.57 275.78 267.53 272.00 264.00
C 265.39 257.82 263.37 252.93 254.75 248.25 C 246.14 243.56 249.85 236.92 256.00 230.00
C 272.17 238.58 284.55 254.36 299.00 265.00
C 298.84 270.46 292.48 272.82 289.00 276.00
M 130.00 231.00 
C 135.78 232.66 131.95 240.95 126.33 238.67 C 120.70 236.39 124.40 229.39 130.00 231.00
M 242.00 237.00 
C 241.01 239.58 238.96 241.43 238.00 244.00
C 231.34 244.91 220.92 247.28 215.97 251.97 C 211.03 256.66 200.66 265.57 203.76 256.75 C 206.85 247.94 214.45 247.08 220.25 242.25 C 226.04 237.41 235.47 234.27 242.00 237.00
M 171.00 243.00 
C 171.94 249.51 178.74 249.83 182.00 254.00
C 176.36 254.42 171.96 258.43 171.00 264.00
C 170.40 257.14 161.58 256.54 160.00 251.00
C 165.73 251.71 168.34 246.49 171.00 243.00
M 213.00 266.00 
C 211.74 257.48 217.95 257.14 224.08 251.08 C 230.22 245.03 241.49 251.22 230.78 254.78 C 220.06 258.33 222.53 262.04 213.00 266.00
M 309.00 289.00 
C 309.62 285.13 309.59 282.84 309.00 279.00
C 306.92 265.36 320.48 260.81 331.00 255.00
C 342.45 283.53 322.91 320.05 291.00 321.00
C 296.90 311.02 309.27 302.62 309.00 289.00
M 136.00 304.00 
C 134.35 287.53 117.64 275.39 102.00 274.00
C 105.60 264.13 122.64 261.23 132.00 261.00 C 141.36 260.77 160.84 269.22 149.08 277.08 C 137.32 284.94 149.34 301.53 136.00 304.00
M 253.00 266.00 
C 255.38 265.67 257.39 267.53 259.00 269.00
C 264.20 273.74 255.43 281.10 252.00 286.00
C 250.75 287.78 249.18 289.45 248.00 291.00
C 246.91 292.44 240.21 307.69 247.75 300.74 C 255.28 293.79 258.94 280.16 268.00 276.00
C 267.26 326.58 221.31 372.57 172.00 376.00
C 174.60 351.01 176.12 320.82 191.75 300.75 C 207.39 280.69 223.11 265.22 249.00 262.00
C 248.12 266.43 239.73 271.45 237.25 274.25 C 234.77 277.05 223.37 283.56 226.78 287.22 C 230.19 290.88 236.36 279.80 239.75 277.75 C 243.15 275.70 248.88 268.33 253.00 266.00
M 192.00 263.00 
C 197.35 265.39 192.95 275.07 187.33 271.67 C 181.71 268.27 187.37 260.93 192.00 263.00
M 395.00 267.00 
C 399.48 268.07 398.48 276.21 393.00 275.00 C 387.51 273.78 390.16 265.84 395.00 267.00
M 186.00 286.00 
C 178.59 286.65 170.84 290.54 171.00 299.00
C 168.56 292.86 161.38 287.03 154.00 285.00
C 160.47 282.37 168.90 279.05 169.00 271.00
C 171.75 278.16 180.46 281.72 186.00 286.00
M 356.00 276.00 
C 355.64 280.73 360.32 284.77 365.00 284.00
C 365.21 289.68 354.30 287.57 356.00 295.00
C 351.09 293.39 349.68 286.47 343.00 286.00
C 348.75 284.45 351.32 278.20 356.00 276.00
M 292.00 305.00 
C 290.47 308.21 283.22 321.96 279.00 322.00
C 278.00 322.01 277.00 321.99 276.00 322.00
C 276.27 313.96 284.48 308.62 285.78 300.78 C 287.07 292.93 286.77 280.69 298.00 281.00
C 299.16 290.15 295.26 296.86 292.00 305.00
M 142.00 327.00 
C 140.03 326.89 137.98 326.94 136.00 327.00
C 128.26 327.22 117.25 330.45 125.00 339.00
C 135.56 333.35 153.39 335.39 160.75 347.25 C 168.11 359.11 160.02 377.18 159.00 390.00
C 170.37 389.45 180.80 385.29 192.00 384.00
C 196.13 398.54 209.88 376.21 221.00 380.00 C 232.12 383.79 245.27 387.16 247.00 401.00
C 248.12 402.50 250.23 403.04 252.00 403.00
C 258.08 402.85 262.93 388.65 271.03 388.03 C 279.12 387.40 291.71 384.26 297.75 391.25 C 303.78 398.25 315.17 402.21 312.23 392.77 C 309.29 383.33 299.82 380.32 292.00 378.00
C 291.98 373.74 289.02 370.29 289.00 366.00
C 299.17 362.49 307.26 366.68 316.23 370.77 C 325.20 374.86 323.30 384.90 330.00 389.00
C 336.18 380.58 339.52 372.11 350.08 368.08 C 360.63 364.04 374.11 365.82 383.00 373.00
C 372.85 391.04 356.50 400.37 337.31 410.31 C 318.11 420.24 294.25 426.86 271.78 428.78 C 249.31 430.70 219.00 426.50 198.98 419.02 C 178.96 411.55 161.18 402.51 145.75 388.25 C 130.32 373.98 118.45 361.23 108.22 342.78 C 98.00 324.32 88.76 302.50 89.00 282.00
C 95.51 283.79 102.81 282.27 109.07 284.93 C 115.33 287.58 118.52 289.73 121.92 296.08 C 125.32 302.42 126.40 307.85 126.00 316.00 C 125.60 324.15 134.72 322.16 136.78 315.78 C 138.83 309.39 150.34 310.48 155.00 310.00 C 159.66 309.52 172.29 311.08 170.22 317.22 C 168.14 323.37 165.98 329.52 165.00 336.00
C 157.70 332.37 150.85 326.91 142.00 327.00
M 278.00 309.00 
C 276.56 311.53 270.36 320.25 270.03 313.97 C 269.69 307.69 274.60 305.18 276.00 300.00
C 276.31 294.26 279.80 283.83 282.97 291.03 C 286.15 298.23 280.76 304.15 278.00 309.00
M 412.00 333.00 
C 407.45 325.90 401.20 317.08 391.77 315.23 C 382.34 313.38 375.94 306.93 370.00 299.00
C 381.21 287.28 398.98 289.65 411.08 298.92 C 423.18 308.19 424.04 325.38 412.00 333.00
M 355.00 304.00 
C 356.14 310.83 362.29 315.09 369.00 315.00
C 366.99 321.24 354.78 320.19 355.00 330.00
C 352.09 323.50 344.74 318.99 339.00 316.00
C 347.29 315.87 351.29 309.03 355.00 304.00
M 332.00 319.00 
C 335.13 321.06 331.42 328.65 327.33 325.67 C 323.24 322.69 328.09 316.42 332.00 319.00
M 406.00 343.00 
C 407.14 347.61 405.85 348.32 403.00 352.00
C 397.06 359.67 393.38 370.64 384.25 362.75 C 375.12 354.86 364.30 356.26 353.99 356.99 C 343.68 357.72 337.56 366.42 329.00 370.00
C 328.31 365.39 322.08 364.68 320.00 361.00
C 316.79 357.89 317.29 359.03 320.00 355.00
C 325.14 347.35 332.83 339.47 343.00 340.00
C 342.30 344.60 346.95 346.83 351.00 346.00
C 355.93 319.98 400.49 314.73 406.00 343.00
M 310.00 328.00 
C 309.80 333.60 314.22 335.66 319.00 337.00
C 313.25 339.24 311.60 346.33 307.00 349.00
C 307.17 343.51 303.60 339.19 298.00 339.00
C 300.14 334.98 306.75 331.92 310.00 328.00
M 286.00 341.00 
C 280.49 341.04 277.57 346.09 277.00 351.00
C 272.04 348.46 272.30 340.24 265.00 340.00
C 267.36 336.24 274.90 336.39 274.00 330.00
C 278.53 331.96 282.59 337.56 286.00 341.00
M 281.00 376.00 
C 270.86 375.49 259.72 380.04 254.00 388.00
C 245.08 380.89 235.68 371.43 223.00 370.00
C 227.46 363.18 235.77 361.60 241.25 354.25 C 246.73 346.90 259.78 351.00 266.25 355.75 C 272.71 360.51 280.67 367.44 281.00 376.00 Z"/>
</g>
<g fill="None" fill-opacity="0.0" stroke="#FDFDFE" stroke-opacity="0.91" stroke-width="0.3"><path d="
M 211.00 97.00 
C 210.15 97.41 210.20 98.36 208.32 99.32 C 206.44 100.28 206.15 97.99 206.00 98.00
C 132.10 120.00 78.84 194.97 87.00 273.00
C 89.01 271.95 90.80 269.70 92.00 268.00
C 93.83 265.41 95.58 261.49 99.00 260.00
C 99.53 261.28 98.03 261.86 98.00 263.00
C 105.54 256.50 112.91 252.23 112.00 241.00 C 111.09 229.77 116.09 220.62 118.07 211.07 C 120.06 201.53 124.72 194.97 129.08 187.08 C 133.44 179.18 138.65 172.92 143.75 165.75 C 148.85 158.58 155.99 154.51 161.75 147.75 C 167.52 141.00 175.95 139.37 182.92 133.92 C 189.88 128.46 197.95 125.32 206.78 121.78 C 215.61 118.24 226.19 116.99 235.99 114.99 C 245.79 112.99 257.87 113.07 268.00 114.00
C 268.33 113.96 268.72 111.98 271.01 112.01 C 273.30 112.04 273.15 113.72 274.00 114.00
C 287.08 118.22 301.34 115.56 313.31 123.69 C 325.27 131.83 333.66 119.41 346.00 117.00
C 341.50 110.43 332.47 107.61 324.23 103.77 C 315.98 99.94 307.11 97.14 297.67 95.33 C 288.23 93.52 276.18 92.00 266.00 92.00
C 260.49 92.00 253.69 91.01 249.00 91.00
C 235.82 92.24 223.33 94.26 211.00 97.00 Z"/>
</g>
<g fill="None" fill-opacity="0.0" stroke="#D1E5FB" stroke-opacity="0.12" stroke-width="0.3"><path d="
M 266.00 92.00 
C 261.09 91.52 254.70 90.47 249.00 91.00
C 253.69 91.01 260.49 92.00 266.00 92.00 Z"/>
</g>
<g fill="None" fill-opacity="0.0" stroke="#F5F8FE" stroke-opacity="0.42" stroke-width="0.3"><path d="
M 206.00 98.00 
C 206.15 97.99 206.44 100.28 208.32 99.32 C 210.20 98.36 210.15 97.41 211.00 97.00
C 209.26 97.39 207.66 97.49 206.00 98.00 Z"/>
</g>
<g fill="None" fill-opacity="0.0" stroke="#FBFDFE" stroke-opacity="0.88" stroke-width="0.3"><path d="
M 379.00 158.00 
C 381.22 159.38 388.05 160.75 388.00 166.00
C 395.65 162.14 393.14 154.48 396.02 146.02 C 398.90 137.57 396.59 130.23 398.00 120.00 C 399.41 109.77 391.02 109.44 383.01 112.01 C 375.00 114.57 368.11 114.81 361.02 118.02 C 353.94 121.24 348.05 121.20 344.00 128.00
C 356.48 135.91 368.11 147.11 379.00 158.00 Z"/>
</g>
<g fill="None" fill-opacity="0.0" stroke="#F5F9FB" stroke-opacity="0.49" stroke-width="0.3"><path d="
M 268.00 114.00 
C 269.98 114.18 272.01 113.86 274.00 114.00
C 273.15 113.72 273.30 112.04 271.01 112.01 C 268.72 111.98 268.33 113.96 268.00 114.00 Z"/>
</g>
<g fill="None" fill-opacity="0.0" stroke="#F3F8FC" stroke-opacity="0.50" stroke-width="0.3"><path d="
M 228.00 123.00 
C 223.15 121.07 220.52 129.81 225.00 132.00 C 229.48 134.18 232.41 124.76 228.00 123.00 Z"/>
</g>
<g fill="None" fill-opacity="0.0" stroke="#F5FBFE" stroke-opacity="0.61" stroke-width="0.3"><path d="
M 272.00 139.00 
C 273.79 140.02 273.86 139.42 276.00 142.00
C 278.47 148.32 284.31 135.85 288.00 134.00
C 281.16 134.06 281.01 126.39 277.00 124.00
C 276.88 129.12 272.77 133.80 267.00 134.00
C 267.84 136.89 270.21 137.01 272.00 139.00 Z"/>
</g>
<g fill="None" fill-opacity="0.0" stroke="#F7FBFE" stroke-opacity="0.72" stroke-width="0.3"><path d="
M 271.00 152.00 
C 265.57 148.72 258.85 149.44 253.75 145.25 C 248.65 141.06 249.33 133.55 246.00 130.00
C 246.36 143.40 234.63 150.36 223.00 152.00
C 233.43 153.40 246.66 158.48 245.00 172.00
C 250.30 170.52 248.09 161.15 253.77 157.77 C 259.46 154.39 265.38 154.39 271.00 152.00 Z"/>
</g>
<g fill="None" fill-opacity="0.0" stroke="#EFF8FE" stroke-opacity="0.61" stroke-width="0.3"><path d="
M 207.00 143.00 
C 208.64 143.93 208.90 144.46 210.75 145.25 C 212.59 146.05 211.06 149.11 211.00 149.00
C 211.96 149.97 213.66 149.29 215.00 151.00
C 216.18 146.80 220.37 143.17 225.00 143.00
C 223.08 137.96 216.11 135.22 213.00 131.00
C 214.82 137.68 207.49 138.87 203.00 140.00
C 202.12 143.15 205.75 142.29 207.00 143.00 Z"/>
</g>
<g fill="None" fill-opacity="0.0" stroke="#FCFDFE" stroke-opacity="0.92" stroke-width="0.3"><path d="
M 331.00 135.00 
C 329.47 136.70 329.60 136.67 326.00 138.00
C 299.36 155.18 279.64 183.17 269.00 212.00
C 273.99 215.65 278.99 220.20 284.00 224.00
C 286.49 225.01 287.58 225.80 289.00 228.00
C 296.79 235.06 303.31 238.02 310.75 246.25 C 318.19 254.48 327.51 247.88 334.75 241.75 C 342.00 235.63 350.71 230.70 356.25 223.25 C 361.79 215.80 370.07 207.21 373.22 200.22 C 376.37 193.24 387.52 178.94 383.00 174.00
C 380.24 170.40 375.66 167.81 373.00 164.00
C 370.48 160.40 367.30 156.30 364.00 153.00
C 358.65 148.42 354.17 143.69 348.23 139.77 C 342.29 135.85 336.93 131.29 331.00 135.00
M 333.00 164.00 
C 358.23 164.84 357.16 206.14 331.00 205.00 C 304.83 203.86 307.69 163.16 333.00 164.00
M 304.00 212.00 
C 301.46 212.02 300.40 212.08 299.00 210.00
C 290.34 197.13 317.76 211.88 304.00 212.00
M 313.00 222.00 
C 307.00 216.23 317.32 214.19 313.00 222.00 Z"/>
</g>
<g fill="None" fill-opacity="0.0" stroke="#E0E9FD" stroke-opacity="0.36" stroke-width="0.3"><path d="
M 326.00 138.00 
C 329.60 136.67 329.47 136.70 331.00 135.00
C 329.51 135.93 327.50 137.02 326.00 138.00 Z"/>
</g>
<g fill="None" fill-opacity="0.0" stroke="#7AB7FF" stroke-opacity="0.02" stroke-width="0.3"><path d="
M 272.00 139.00 
C 274.08 141.30 274.07 140.93 276.00 142.00
C 273.86 139.42 273.79 140.02 272.00 139.00 Z"/>
</g>
<g fill="None" fill-opacity="0.0" stroke="#FAFCFE" stroke-opacity="0.81" stroke-width="0.3"><path d="
M 186.00 204.00 
C 186.82 203.58 189.33 203.60 190.00 203.00
C 192.48 190.40 198.01 182.37 211.00 180.00
C 211.67 179.69 215.02 176.64 215.00 175.00
C 206.33 173.99 199.40 170.49 194.77 163.23 C 190.15 155.97 190.91 145.93 187.00 140.00
C 185.66 149.85 184.80 160.17 177.92 167.92 C 171.03 175.66 159.26 172.45 151.00 177.00
C 169.54 177.94 182.78 184.54 186.00 204.00 Z"/>
</g>
<g fill="None" fill-opacity="0.0" stroke="#68A9FF" stroke-opacity="0.01" stroke-width="0.3"><path d="
M 211.00 149.00 
C 211.06 149.11 212.59 146.05 210.75 145.25 C 208.90 144.46 208.64 143.93 207.00 143.00
C 208.71 144.61 209.28 147.34 211.00 149.00 Z"/>
</g>
<g fill="None" fill-opacity="0.0" stroke="#B5CFFF" stroke-opacity="0.06" stroke-width="0.3"><path d="
M 373.00 164.00 
C 375.41 166.93 379.45 169.27 382.00 172.00
C 377.00 164.70 370.81 158.82 364.00 153.00
C 367.30 156.30 370.48 160.40 373.00 164.00 Z"/>
</g>
<g fill="None" fill-opacity="0.0" stroke="#CDDFFF" stroke-opacity="0.33" stroke-width="0.3"><path d="
M 379.00 158.00 
C 380.43 159.43 386.24 165.89 388.00 166.00
C 388.05 160.75 381.22 159.38 379.00 158.00 Z"/>
</g>
<g fill="None" fill-opacity="0.0" stroke="#FCFDFE" stroke-opacity="0.89" stroke-width="0.3"><path d="
M 406.00 285.00 
C 416.28 286.21 425.05 304.97 428.22 292.22 C 431.39 279.47 433.63 268.40 433.00 255.00 C 432.37 241.60 430.13 230.51 426.93 219.07 C 423.73 207.63 420.90 197.78 416.31 187.69 C 411.71 177.61 406.83 169.22 400.00 162.00
C 395.80 175.18 387.20 186.23 395.08 198.92 C 402.95 211.62 403.59 224.79 407.01 238.99 C 410.43 253.19 409.14 270.86 406.00 285.00 Z"/>
</g>
<g fill="None" fill-opacity="0.0" stroke="#EDF5FC" stroke-opacity="0.58" stroke-width="0.3"><path d="
M 275.00 173.00 
C 268.09 174.36 268.58 165.20 264.00 164.00
C 263.45 169.11 259.44 173.34 254.00 173.00
C 254.61 177.08 260.19 176.79 261.00 182.00
C 263.63 177.59 262.60 185.94 267.00 184.00
C 265.37 177.11 275.14 178.16 275.00 173.00 Z"/>
</g>
<g fill="None" fill-opacity="0.0" stroke="#000000" stroke-opacity="0.00" stroke-width="0.3"><path d="
M 333.00 164.00 
C 307.69 163.16 304.83 203.86 331.00 205.00 C 357.16 206.14 358.23 164.84 333.00 164.00
M 338.00 172.00 
C 341.33 172.47 343.42 178.42 345.70 180.30 C 347.98 182.17 345.33 193.60 340.97 191.97 C 336.61 190.35 340.65 182.50 336.70 180.30 C 332.76 178.09 332.11 171.17 338.00 172.00 Z"/>
</g>
<g fill="None" fill-opacity="0.0" stroke="#F7FBFF" stroke-opacity="0.60" stroke-width="0.3"><path d="
M 383.00 174.00 
C 382.64 173.61 382.34 172.50 382.00 172.00
C 379.45 169.27 375.41 166.93 373.00 164.00
C 375.66 167.81 380.24 170.40 383.00 174.00 Z"/>
</g>
<g fill="None" fill-opacity="0.0" stroke="#F0F7FE" stroke-opacity="0.62" stroke-width="0.3"><path d="
M 338.00 172.00 
C 332.11 171.17 332.76 178.09 336.70 180.30 C 340.65 182.50 336.61 190.35 340.97 191.97 C 345.33 193.60 347.98 182.17 345.70 180.30 C 343.42 178.42 341.33 172.47 338.00 172.00 Z"/>
</g>
<g fill="None" fill-opacity="0.0" stroke="#EEF9FC" stroke-opacity="0.29" stroke-width="0.3"><path d="
M 211.00 180.00 
C 215.16 178.55 220.37 179.12 224.00 177.00
C 221.92 174.44 218.02 175.50 215.00 175.00
C 215.02 176.64 211.67 179.69 211.00 180.00 Z"/>
</g>
<g fill="None" fill-opacity="0.0" stroke="#F5F8FE" stroke-opacity="0.57" stroke-width="0.3"><path d="
M 233.00 182.00 
C 228.78 179.15 223.28 185.43 227.78 189.22 C 232.28 193.01 237.17 184.82 233.00 182.00 Z"/>
</g>
<g fill="None" fill-opacity="0.0" stroke="#FBFBFE" stroke-opacity="0.51" stroke-width="0.3"><path d="
M 138.00 200.00 
C 152.02 200.85 135.80 185.09 138.00 200.00 Z"/>
</g>
<g fill="None" fill-opacity="0.0" stroke="#FCFDFE" stroke-opacity="0.85" stroke-width="0.3"><path d="
M 237.00 227.00 
C 241.31 226.30 247.51 226.70 251.00 223.00
C 254.16 215.54 261.72 210.04 263.00 202.00
C 230.75 194.21 197.96 219.82 196.00 252.00
C 206.91 240.22 219.59 227.94 237.00 227.00 Z"/>
</g>
<g fill="None" fill-opacity="0.0" stroke="#DBE9FF" stroke-opacity="0.12" stroke-width="0.3"><path d="
M 153.00 209.00 
C 153.96 206.83 155.76 205.92 157.00 208.00
C 157.30 205.89 156.89 202.59 154.00 203.00
C 154.73 205.19 153.35 207.13 153.00 209.00 Z"/>
</g>
<g fill="None" fill-opacity="0.0" stroke="#E8F3FE" stroke-opacity="0.33" stroke-width="0.3"><path d="
M 186.00 204.00 
C 186.01 206.77 185.52 210.30 188.00 212.00
C 189.76 209.75 189.42 205.93 190.00 203.00
C 189.33 203.60 186.82 203.58 186.00 204.00 Z"/>
</g>
<g fill="None" fill-opacity="0.0" stroke="#E7FDFE" stroke-opacity="0.55" stroke-width="0.3"><path d="
M 299.00 210.00 
C 299.24 210.43 300.37 207.30 299.00 207.00
C 302.61 203.90 305.09 208.68 304.00 212.00
C 317.76 211.88 290.34 197.13 299.00 210.00 Z"/>
</g>
<g fill="None" fill-opacity="0.0" stroke="#EBF2FF" stroke-opacity="0.56" stroke-width="0.3"><path d="
M 129.00 214.00 
C 132.79 214.45 139.00 211.20 134.25 206.76 C 129.49 202.31 126.77 210.20 129.00 214.00 Z"/>
</g>
<g fill="None" fill-opacity="0.0" stroke="#F8FBFE" stroke-opacity="0.75" stroke-width="0.3"><path d="
M 153.00 209.00 
C 154.75 221.79 140.95 225.06 132.00 227.00
C 135.72 230.51 143.60 229.07 148.25 233.75 C 152.90 238.44 152.71 244.61 155.00 250.00
C 157.64 241.77 159.10 232.68 169.00 230.00
C 169.50 229.66 169.77 226.58 172.00 228.00
C 171.43 226.87 169.48 226.88 170.00 225.00
C 160.35 222.42 159.13 216.88 157.00 208.00
C 155.76 205.92 153.96 206.83 153.00 209.00 Z"/>
</g>
<g fill="None" fill-opacity="0.0" stroke="#000000" stroke-opacity="0.00" stroke-width="0.3"><path d="
M 299.00 210.00 
C 300.40 212.08 301.46 212.02 304.00 212.00
C 305.09 208.68 302.61 203.90 299.00 207.00
C 300.37 207.30 299.24 210.43 299.00 210.00 Z"/>
</g>
<g fill="None" fill-opacity="0.0" stroke="#F0F8FE" stroke-opacity="0.58" stroke-width="0.3"><path d="
M 393.00 219.00 
C 391.71 216.63 391.40 212.13 388.00 212.00
C 384.94 215.17 386.98 219.14 381.01 220.01 C 375.04 220.88 378.73 224.45 383.30 224.70 C 387.86 224.96 384.66 232.72 390.00 232.00
C 389.76 224.75 398.13 225.79 400.00 221.00
C 397.41 220.90 395.97 217.89 393.00 219.00 Z"/>
</g>
<g fill="None" fill-opacity="0.0" stroke="#000000" stroke-opacity="0.00" stroke-width="0.3"><path d="
M 313.00 222.00 
C 317.32 214.19 307.00 216.23 313.00 222.00 Z"/>
</g>
<g fill="None" fill-opacity="0.0" stroke="#F5FAFE" stroke-opacity="0.67" stroke-width="0.3"><path d="
M 261.00 225.00 
C 274.00 235.27 287.82 246.75 300.75 257.25 C 313.67 267.76 310.96 254.64 303.25 249.75 C 295.53 244.87 290.55 238.52 283.75 233.25 C 276.95 227.98 271.19 222.19 264.00 218.00
C 263.39 220.57 260.39 222.08 261.00 225.00 Z"/>
</g>
<g fill="None" fill-opacity="0.0" stroke="#E2EBFC" stroke-opacity="0.07" stroke-width="0.3"><path d="
M 237.00 227.00 
C 243.08 226.67 247.11 228.24 251.00 223.00
C 247.51 226.70 241.31 226.30 237.00 227.00 Z"/>
</g>
<g fill="None" fill-opacity="0.0" stroke="#F7F9FE" stroke-opacity="0.20" stroke-width="0.3"><path d="
M 284.00 224.00 
C 285.53 225.16 287.80 226.91 289.00 228.00
C 287.58 225.80 286.49 225.01 284.00 224.00 Z"/>
</g>
<g fill="None" fill-opacity="0.0" stroke="#EDF6FD" stroke-opacity="0.35" stroke-width="0.3"><path d="
M 169.00 230.00 
C 172.02 228.07 177.15 230.66 179.00 227.00
C 176.73 225.40 172.87 225.77 170.00 225.00
C 169.48 226.88 171.43 226.87 172.00 228.00
C 169.77 226.58 169.50 229.66 169.00 230.00 Z"/>
</g>
<g fill="None" fill-opacity="0.0" stroke="#F8FBFE" stroke-opacity="0.73" stroke-width="0.3"><path d="
M 372.00 270.00 
C 372.97 268.61 374.92 269.66 376.00 269.00
C 378.50 257.72 389.66 254.76 399.00 252.00
C 393.37 249.52 386.57 249.97 381.25 245.75 C 375.92 241.54 377.45 233.49 374.00 229.00
C 374.50 242.80 363.29 251.22 350.00 252.00
C 360.75 254.44 369.74 257.86 372.00 270.00 Z"/>
</g>
<g fill="None" fill-opacity="0.0" stroke="#FAFCFE" stroke-opacity="0.84" stroke-width="0.3"><path d="
M 272.00 264.00 
C 274.68 265.99 277.87 267.67 280.70 269.30 C 283.52 270.94 285.46 276.17 289.00 276.00
C 292.48 272.82 298.84 270.46 299.00 265.00
C 284.55 254.36 272.17 238.58 256.00 230.00
C 249.85 236.92 246.14 243.56 254.75 248.25 C 263.37 252.93 265.39 257.82 272.00 264.00 Z"/>
</g>
<g fill="None" fill-opacity="0.0" stroke="#F4FAFC" stroke-opacity="0.53" stroke-width="0.3"><path d="
M 130.00 231.00 
C 124.40 229.39 120.70 236.39 126.33 238.67 C 131.95 240.95 135.78 232.66 130.00 231.00 Z"/>
</g>
<g fill="None" fill-opacity="0.0" stroke="#E9F5FF" stroke-opacity="0.60" stroke-width="0.3"><path d="
M 242.00 237.00 
C 235.47 234.27 226.04 237.41 220.25 242.25 C 214.45 247.08 206.85 247.94 203.76 256.75 C 200.66 265.57 211.03 256.66 215.97 251.97 C 220.92 247.28 231.34 244.91 238.00 244.00
C 238.96 241.43 241.01 239.58 242.00 237.00 Z"/>
</g>
<g fill="None" fill-opacity="0.0" stroke="#F7FAFD" stroke-opacity="0.65" stroke-width="0.3"><path d="
M 171.00 243.00 
C 168.34 246.49 165.73 251.71 160.00 251.00
C 161.58 256.54 170.40 257.14 171.00 264.00
C 171.96 258.43 176.36 254.42 182.00 254.00
C 178.74 249.83 171.94 249.51 171.00 243.00 Z"/>
</g>
<g fill="None" fill-opacity="0.0" stroke="#EAF4FF" stroke-opacity="0.56" stroke-width="0.3"><path d="
M 213.00 266.00 
C 222.53 262.04 220.06 258.33 230.78 254.78 C 241.49 251.22 230.22 245.03 224.08 251.08 C 217.95 257.14 211.74 257.48 213.00 266.00 Z"/>
</g>
<g fill="None" fill-opacity="0.0" stroke="#FCFDFE" stroke-opacity="0.87" stroke-width="0.3"><path d="
M 309.00 279.00 
C 309.34 280.15 310.99 280.97 311.00 284.00 C 311.00 287.03 309.40 287.72 309.00 289.00
C 309.27 302.62 296.90 311.02 291.00 321.00
C 322.91 320.05 342.45 283.53 331.00 255.00
C 320.48 260.81 306.92 265.36 309.00 279.00 Z"/>
</g>
<g fill="None" fill-opacity="0.0" stroke="#ECF0FF" stroke-opacity="0.16" stroke-width="0.3"><path d="
M 92.00 268.00 
C 93.98 266.36 96.11 264.63 98.00 263.00
C 98.03 261.86 99.53 261.28 99.00 260.00
C 95.58 261.49 93.83 265.41 92.00 268.00 Z"/>
</g>
<g fill="None" fill-opacity="0.0" stroke="#FAFDFE" stroke-opacity="0.85" stroke-width="0.3"><path d="
M 136.00 304.00 
C 149.34 301.53 137.32 284.94 149.08 277.08 C 160.84 269.22 141.36 260.77 132.00 261.00 C 122.64 261.23 105.60 264.13 102.00 274.00
C 117.64 275.39 134.35 287.53 136.00 304.00 Z"/>
</g>
<g fill="None" fill-opacity="0.0" stroke="#FDFDFE" stroke-opacity="0.93" stroke-width="0.3"><path d="
M 248.00 291.00 
C 249.19 288.36 249.37 288.43 252.00 286.00
C 255.43 281.10 264.20 273.74 259.00 269.00
C 257.50 268.17 251.24 268.68 248.25 273.25 C 245.26 277.82 240.51 280.22 237.00 284.00
C 240.32 276.96 248.56 272.51 253.00 266.00
C 248.88 268.33 243.15 275.70 239.75 277.75 C 236.36 279.80 230.19 290.88 226.78 287.22 C 223.37 283.56 234.77 277.05 237.25 274.25 C 239.73 271.45 248.12 266.43 249.00 262.00
C 223.11 265.22 207.39 280.69 191.75 300.75 C 176.12 320.82 174.60 351.01 172.00 376.00
C 221.31 372.57 267.26 326.58 268.00 276.00
C 258.94 280.16 255.28 293.79 247.75 300.74 C 240.21 307.69 246.91 292.44 248.00 291.00
M 232.00 276.00 
C 231.00 279.34 227.37 283.06 224.00 284.00
C 226.21 281.04 229.02 278.10 232.00 276.00 Z"/>
</g>
<g fill="None" fill-opacity="0.0" stroke="#F7FAFD" stroke-opacity="0.62" stroke-width="0.3"><path d="
M 192.00 263.00 
C 187.37 260.93 181.71 268.27 187.33 271.67 C 192.95 275.07 197.35 265.39 192.00 263.00 Z"/>
</g>
<g fill="None" fill-opacity="0.0" stroke="#D1E2FF" stroke-opacity="0.12" stroke-width="0.3"><path d="
M 289.00 276.00 
C 285.46 276.17 283.52 270.94 280.70 269.30 C 277.87 267.67 274.68 265.99 272.00 264.00
C 275.78 267.53 284.09 277.57 289.00 276.00 Z"/>
</g>
<g fill="None" fill-opacity="0.0" stroke="#F8FCFE" stroke-opacity="0.62" stroke-width="0.3"><path d="
M 259.00 269.00 
C 257.39 267.53 255.38 265.67 253.00 266.00
C 248.56 272.51 240.32 276.96 237.00 284.00
C 240.51 280.22 245.26 277.82 248.25 273.25 C 251.24 268.68 257.50 268.17 259.00 269.00 Z"/>
</g>
<g fill="None" fill-opacity="0.0" stroke="#F1F6FE" stroke-opacity="0.53" stroke-width="0.3"><path d="
M 395.00 267.00 
C 390.16 265.84 387.51 273.78 393.00 275.00 C 398.48 276.21 399.48 268.07 395.00 267.00 Z"/>
</g>
<g fill="None" fill-opacity="0.0" stroke="#DFEFFF" stroke-opacity="0.29" stroke-width="0.3"><path d="
M 372.00 270.00 
C 373.28 272.72 371.59 278.42 375.00 279.00
C 376.31 275.86 375.23 272.27 376.00 269.00
C 374.92 269.66 372.97 268.61 372.00 270.00 Z"/>
</g>
<g fill="None" fill-opacity="0.0" stroke="#F3F8FE" stroke-opacity="0.66" stroke-width="0.3"><path d="
M 186.00 286.00 
C 180.46 281.72 171.75 278.16 169.00 271.00
C 168.90 279.05 160.47 282.37 154.00 285.00
C 161.38 287.03 168.56 292.86 171.00 299.00
C 170.84 290.54 178.59 286.65 186.00 286.00 Z"/>
</g>
<g fill="None" fill-opacity="0.0" stroke="#FDFDFE" stroke-opacity="0.60" stroke-width="0.3"><path d="
M 232.00 276.00 
C 229.02 278.10 226.21 281.04 224.00 284.00
C 227.37 283.06 231.00 279.34 232.00 276.00 Z"/>
</g>
<g fill="None" fill-opacity="0.0" stroke="#F6F9FD" stroke-opacity="0.61" stroke-width="0.3"><path d="
M 356.00 276.00 
C 351.32 278.20 348.75 284.45 343.00 286.00
C 349.68 286.47 351.09 293.39 356.00 295.00
C 354.30 287.57 365.21 289.68 365.00 284.00
C 360.32 284.77 355.64 280.73 356.00 276.00 Z"/>
</g>
<g fill="None" fill-opacity="0.0" stroke="#EAF6FE" stroke-opacity="0.52" stroke-width="0.3"><path d="
M 309.00 289.00 
C 309.40 287.72 311.00 287.03 311.00 284.00 C 310.99 280.97 309.34 280.15 309.00 279.00
C 309.59 282.84 309.62 285.13 309.00 289.00 Z"/>
</g>
<g fill="None" fill-opacity="0.0" stroke="#EFF8FF" stroke-opacity="0.68" stroke-width="0.3"><path d="
M 279.00 322.00 
C 281.17 321.69 283.69 315.11 285.25 313.25 C 286.82 311.39 290.68 307.07 292.00 305.00
C 295.26 296.86 299.16 290.15 298.00 281.00
C 286.77 280.69 287.07 292.93 285.78 300.78 C 284.48 308.62 276.27 313.96 276.00 322.00
C 277.00 321.99 278.00 322.01 279.00 322.00 Z"/>
</g>
<g fill="None" fill-opacity="0.0" stroke="#FDFDFE" stroke-opacity="0.92" stroke-width="0.3"><path d="
M 252.00 403.00 
C 252.65 403.48 253.63 404.15 254.00 405.00
C 251.26 405.82 245.13 403.90 247.00 401.00
C 245.27 387.16 232.12 383.79 221.00 380.00 C 209.88 376.21 196.13 398.54 192.00 384.00
C 180.80 385.29 170.37 389.45 159.00 390.00
C 160.02 377.18 168.11 359.11 160.75 347.25 C 153.39 335.39 135.56 333.35 125.00 339.00
C 117.25 330.45 128.26 327.22 136.00 327.00
C 135.25 327.25 140.80 322.60 144.00 325.00
C 143.92 326.26 141.94 325.56 142.00 327.00
C 150.85 326.91 157.70 332.37 165.00 336.00
C 165.98 329.52 168.14 323.37 170.22 317.22 C 172.29 311.08 159.66 309.52 155.00 310.00 C 150.34 310.48 138.83 309.39 136.78 315.78 C 134.72 322.16 125.60 324.15 126.00 316.00 C 126.40 307.85 125.32 302.42 121.92 296.08 C 118.52 289.73 115.33 287.58 109.07 284.93 C 102.81 282.27 95.51 283.79 89.00 282.00
C 88.76 302.50 98.00 324.32 108.22 342.78 C 118.45 361.23 130.32 373.98 145.75 388.25 C 161.18 402.51 178.96 411.55 198.98 419.02 C 219.00 426.50 249.31 430.70 271.78 428.78 C 294.25 426.86 318.11 420.24 337.31 410.31 C 356.50 400.37 372.85 391.04 383.00 373.00
C 374.11 365.82 360.63 364.04 350.08 368.08 C 339.52 372.11 336.18 380.58 330.00 389.00
C 323.30 384.90 325.20 374.86 316.23 370.77 C 307.26 366.68 299.17 362.49 289.00 366.00
C 289.02 370.29 291.98 373.74 292.00 378.00
C 299.82 380.32 309.29 383.33 312.23 392.77 C 315.17 402.21 303.78 398.25 297.75 391.25 C 291.71 384.26 279.12 387.40 271.03 388.03 C 262.93 388.65 258.08 402.85 252.00 403.00 Z"/>
</g>
<g fill="None" fill-opacity="0.0" stroke="#CCF4FC" stroke-opacity="0.28" stroke-width="0.3"><path d="
M 248.00 291.00 
C 249.18 289.45 250.75 287.78 252.00 286.00
C 249.37 288.43 249.19 288.36 248.00 291.00 Z"/>
</g>
<g fill="None" fill-opacity="0.0" stroke="#EBF5FF" stroke-opacity="0.60" stroke-width="0.3"><path d="
M 276.00 300.00 
C 275.77 304.30 278.07 307.19 278.00 309.00
C 280.76 304.15 286.15 298.23 282.97 291.03 C 279.80 283.83 276.31 294.26 276.00 300.00 Z"/>
</g>
<g fill="None" fill-opacity="0.0" stroke="#FBFDFE" stroke-opacity="0.85" stroke-width="0.3"><path d="
M 412.00 333.00 
C 424.04 325.38 423.18 308.19 411.08 298.92 C 398.98 289.65 381.21 287.28 370.00 299.00
C 375.94 306.93 382.34 313.38 391.77 315.23 C 401.20 317.08 407.45 325.90 412.00 333.00 Z"/>
</g>
<g fill="None" fill-opacity="0.0" stroke="#E3F0FF" stroke-opacity="0.44" stroke-width="0.3"><path d="
M 278.00 309.00 
C 278.07 307.19 275.77 304.30 276.00 300.00
C 274.60 305.18 269.69 307.69 270.03 313.97 C 270.36 320.25 276.56 311.53 278.00 309.00 Z"/>
</g>
<g fill="None" fill-opacity="0.0" stroke="#F6FAFE" stroke-opacity="0.67" stroke-width="0.3"><path d="
M 355.00 304.00 
C 351.29 309.03 347.29 315.87 339.00 316.00
C 344.74 318.99 352.09 323.50 355.00 330.00
C 354.78 320.19 366.99 321.24 369.00 315.00
C 362.29 315.09 356.14 310.83 355.00 304.00 Z"/>
</g>
<g fill="None" fill-opacity="0.0" stroke="#CBEAFF" stroke-opacity="0.11" stroke-width="0.3"><path d="
M 279.00 322.00 
C 283.22 321.96 290.47 308.21 292.00 305.00
C 290.68 307.07 286.82 311.39 285.25 313.25 C 283.69 315.11 281.17 321.69 279.00 322.00 Z"/>
</g>
<g fill="None" fill-opacity="0.0" stroke="#F5F8FE" stroke-opacity="0.56" stroke-width="0.3"><path d="
M 332.00 319.00 
C 328.09 316.42 323.24 322.69 327.33 325.67 C 331.42 328.65 335.13 321.06 332.00 319.00 Z"/>
</g>
<g fill="None" fill-opacity="0.0" stroke="#FCFEFE" stroke-opacity="0.89" stroke-width="0.3"><path d="
M 320.00 355.00 
C 320.03 354.87 320.96 363.01 320.00 361.00
C 322.08 364.68 328.31 365.39 329.00 370.00
C 337.56 366.42 343.68 357.72 353.99 356.99 C 364.30 356.26 375.12 354.86 384.25 362.75 C 393.38 370.64 397.06 359.67 403.00 352.00
C 403.81 350.50 406.20 346.15 406.00 343.00
C 400.49 314.73 355.93 319.98 351.00 346.00
C 346.95 346.83 342.30 344.60 343.00 340.00
C 332.83 339.47 325.14 347.35 320.00 355.00 Z"/>
</g>
<g fill="None" fill-opacity="0.0" stroke="#E1ECFB" stroke-opacity="0.41" stroke-width="0.3"><path d="
M 136.00 327.00 
C 137.98 326.94 140.03 326.89 142.00 327.00
C 141.94 325.56 143.92 326.26 144.00 325.00
C 140.80 322.60 135.25 327.25 136.00 327.00 Z"/>
</g>
<g fill="None" fill-opacity="0.0" stroke="#F4F7FE" stroke-opacity="0.60" stroke-width="0.3"><path d="
M 310.00 328.00 
C 306.75 331.92 300.14 334.98 298.00 339.00
C 303.60 339.19 307.17 343.51 307.00 349.00
C 311.60 346.33 313.25 339.24 319.00 337.00
C 314.22 335.66 309.80 333.60 310.00 328.00 Z"/>
</g>
<g fill="None" fill-opacity="0.0" stroke="#F5F8FE" stroke-opacity="0.63" stroke-width="0.3"><path d="
M 286.00 341.00 
C 282.59 337.56 278.53 331.96 274.00 330.00
C 274.90 336.39 267.36 336.24 265.00 340.00
C 272.30 340.24 272.04 348.46 277.00 351.00
C 277.57 346.09 280.49 341.04 286.00 341.00 Z"/>
</g>
<g fill="None" fill-opacity="0.0" stroke="#E5F4FF" stroke-opacity="0.13" stroke-width="0.3"><path d="
M 403.00 352.00 
C 405.85 348.32 407.14 347.61 406.00 343.00
C 406.20 346.15 403.81 350.50 403.00 352.00 Z"/>
</g>
<g fill="None" fill-opacity="0.0" stroke="#FBFDFE" stroke-opacity="0.87" stroke-width="0.3"><path d="
M 281.00 376.00 
C 280.67 367.44 272.71 360.51 266.25 355.75 C 259.78 351.00 246.73 346.90 241.25 354.25 C 235.77 361.60 227.46 363.18 223.00 370.00
C 235.68 371.43 245.08 380.89 254.00 388.00
C 259.72 380.04 270.86 375.49 281.00 376.00 Z"/>
</g>
<g fill="None" fill-opacity="0.0" stroke="#E7F2FF" stroke-opacity="0.36" stroke-width="0.3"><path d="
M 320.00 361.00 
C 320.96 363.01 320.03 354.87 320.00 355.00
C 317.29 359.03 316.79 357.89 320.00 361.00 Z"/>
</g>
<g fill="None" fill-opacity="0.0" stroke="#EEFBFD" stroke-opacity="0.45" stroke-width="0.3"><path d="
M 252.00 403.00 
C 250.23 403.04 248.12 402.50 247.00 401.00
C 245.13 403.90 251.26 405.82 254.00 405.00
C 253.63 404.15 252.65 403.48 252.00 403.00 Z"/>
</g>
<g fill="#000000" fill-opacity="0.00" stroke="None">
<path d="
M 0.00 512.00 
L 512.00 512.00
L 512.00 0.00
L 0.00 0.00
L 0.00 512.00
M 266.00 92.00 
C 276.18 92.00 288.23 93.52 297.67 95.33 C 307.11 97.14 315.98 99.94 324.23 103.77 C 332.47 107.61 341.50 110.43 346.00 117.00
C 333.66 119.41 325.27 131.83 313.31 123.69 C 301.34 115.56 287.08 118.22 274.00 114.00
C 272.01 113.86 269.98 114.18 268.00 114.00
C 257.87 113.07 245.79 112.99 235.99 114.99 C 226.19 116.99 215.61 118.24 206.78 121.78 C 197.95 125.32 189.88 128.46 182.92 133.92 C 175.95 139.37 167.52 141.00 161.75 147.75 C 155.99 154.51 148.85 158.58 143.75 165.75 C 138.65 172.92 133.44 179.18 129.08 187.08 C 124.72 194.97 120.06 201.53 118.07 211.07 C 116.09 220.62 111.09 229.77 112.00 241.00 C 112.91 252.23 105.54 256.50 98.00 263.00
C 96.11 264.63 93.98 266.36 92.00 268.00
C 90.80 269.70 89.01 271.95 87.00 273.00
C 78.84 194.97 132.10 120.00 206.00 98.00
C 207.66 97.49 209.26 97.39 211.00 97.00
C 223.33 94.26 235.82 92.24 249.00 91.00
C 254.70 90.47 261.09 91.52 266.00 92.00
M 388.00 166.00 
C 386.24 165.89 380.43 159.43 379.00 158.00
C 368.11 147.11 356.48 135.91 344.00 128.00
C 348.05 121.20 353.94 121.24 361.02 118.02 C 368.11 114.81 375.00 114.57 383.01 112.01 C 391.02 109.44 399.41 109.77 398.00 120.00 C 396.59 130.23 398.90 137.57 396.02 146.02 C 393.14 154.48 395.65 162.14 388.00 166.00
M 228.00 123.00 
C 232.41 124.76 229.48 134.18 225.00 132.00 C 220.52 129.81 223.15 121.07 228.00 123.00
M 276.00 142.00 
C 274.07 140.93 274.08 141.30 272.00 139.00
C 270.21 137.01 267.84 136.89 267.00 134.00
C 272.77 133.80 276.88 129.12 277.00 124.00
C 281.01 126.39 281.16 134.06 288.00 134.00
C 284.31 135.85 278.47 148.32 276.00 142.00
M 271.00 152.00 
C 265.38 154.39 259.46 154.39 253.77 157.77 C 248.09 161.15 250.30 170.52 245.00 172.00
C 246.66 158.48 233.43 153.40 223.00 152.00
C 234.63 150.36 246.36 143.40 246.00 130.00
C 249.33 133.55 248.65 141.06 253.75 145.25 C 258.85 149.44 265.57 148.72 271.00 152.00
M 211.00 149.00 
C 209.28 147.34 208.71 144.61 207.00 143.00
C 205.75 142.29 202.12 143.15 203.00 140.00
C 207.49 138.87 214.82 137.68 213.00 131.00
C 216.11 135.22 223.08 137.96 225.00 143.00
C 220.37 143.17 216.18 146.80 215.00 151.00
C 213.66 149.29 211.96 149.97 211.00 149.00
M 364.00 153.00 
C 370.81 158.82 377.00 164.70 382.00 172.00
C 382.34 172.50 382.64 173.61 383.00 174.00
C 387.52 178.94 376.37 193.24 373.22 200.22 C 370.07 207.21 361.79 215.80 356.25 223.25 C 350.71 230.70 342.00 235.63 334.75 241.75 C 327.51 247.88 318.19 254.48 310.75 246.25 C 303.31 238.02 296.79 235.06 289.00 228.00
C 287.80 226.91 285.53 225.16 284.00 224.00
C 278.99 220.20 273.99 215.65 269.00 212.00
C 279.64 183.17 299.36 155.18 326.00 138.00
C 327.50 137.02 329.51 135.93 331.00 135.00
C 336.93 131.29 342.29 135.85 348.23 139.77 C 354.17 143.69 358.65 148.42 364.00 153.00
M 215.00 175.00 
C 218.02 175.50 221.92 174.44 224.00 177.00
C 220.37 179.12 215.16 178.55 211.00 180.00
C 198.01 182.37 192.48 190.40 190.00 203.00
C 189.42 205.93 189.76 209.75 188.00 212.00
C 185.52 210.30 186.01 206.77 186.00 204.00
C 182.78 184.54 169.54 177.94 151.00 177.00
C 159.26 172.45 171.03 175.66 177.92 167.92 C 184.80 160.17 185.66 149.85 187.00 140.00
C 190.91 145.93 190.15 155.97 194.77 163.23 C 199.40 170.49 206.33 173.99 215.00 175.00
M 406.00 285.00 
C 409.14 270.86 410.43 253.19 407.01 238.99 C 403.59 224.79 402.95 211.62 395.08 198.92 C 387.20 186.23 395.80 175.18 400.00 162.00
C 406.83 169.22 411.71 177.61 416.31 187.69 C 420.90 197.78 423.73 207.63 426.93 219.07 C 430.13 230.51 432.37 241.60 433.00 255.00 C 433.63 268.40 431.39 279.47 428.22 292.22 C 425.05 304.97 416.28 286.21 406.00 285.00
M 275.00 173.00 
C 275.14 178.16 265.37 177.11 267.00 184.00
C 262.60 185.94 263.63 177.59 261.00 182.00
C 260.19 176.79 254.61 177.08 254.00 173.00
C 259.44 173.34 263.45 169.11 264.00 164.00
C 268.58 165.20 268.09 174.36 275.00 173.00
M 233.00 182.00 
C 237.17 184.82 232.28 193.01 227.78 189.22 C 223.28 185.43 228.78 179.15 233.00 182.00
M 138.00 200.00 
C 135.80 185.09 152.02 200.85 138.00 200.00
M 251.00 223.00 
C 247.11 228.24 243.08 226.67 237.00 227.00
C 219.59 227.94 206.91 240.22 196.00 252.00
C 197.96 219.82 230.75 194.21 263.00 202.00
C 261.72 210.04 254.16 215.54 251.00 223.00
M 157.00 208.00 
C 159.13 216.88 160.35 222.42 170.00 225.00
C 172.87 225.77 176.73 225.40 179.00 227.00
C 177.15 230.66 172.02 228.07 169.00 230.00
C 159.10 232.68 157.64 241.77 155.00 250.00
C 152.71 244.61 152.90 238.44 148.25 233.75 C 143.60 229.07 135.72 230.51 132.00 227.00
C 140.95 225.06 154.75 221.79 153.00 209.00
C 153.35 207.13 154.73 205.19 154.00 203.00
C 156.89 202.59 157.30 205.89 157.00 208.00
M 129.00 214.00 
C 126.77 210.20 129.49 202.31 134.25 206.76 C 139.00 211.20 132.79 214.45 129.00 214.00
M 393.00 219.00 
C 395.97 217.89 397.41 220.90 400.00 221.00
C 398.13 225.79 389.76 224.75 390.00 232.00
C 384.66 232.72 387.86 224.96 383.30 224.70 C 378.73 224.45 375.04 220.88 381.01 220.01 C 386.98 219.14 384.94 215.17 388.00 212.00
C 391.40 212.13 391.71 216.63 393.00 219.00
M 261.00 225.00 
C 260.39 222.08 263.39 220.57 264.00 218.00
C 271.19 222.19 276.95 227.98 283.75 233.25 C 290.55 238.52 295.53 244.87 303.25 249.75 C 310.96 254.64 313.67 267.76 300.75 257.25 C 287.82 246.75 274.00 235.27 261.00 225.00
M 376.00 269.00 
C 375.23 272.27 376.31 275.86 375.00 279.00
C 371.59 278.42 373.28 272.72 372.00 270.00
C 369.74 257.86 360.75 254.44 350.00 252.00
C 363.29 251.22 374.50 242.80 374.00 229.00
C 377.45 233.49 375.92 241.54 381.25 245.75 C 386.57 249.97 393.37 249.52 399.00 252.00
C 389.66 254.76 378.50 257.72 376.00 269.00
M 289.00 276.00 
C 284.09 277.57 275.78 267.53 272.00 264.00
C 265.39 257.82 263.37 252.93 254.75 248.25 C 246.14 243.56 249.85 236.92 256.00 230.00
C 272.17 238.58 284.55 254.36 299.00 265.00
C 298.84 270.46 292.48 272.82 289.00 276.00
M 130.00 231.00 
C 135.78 232.66 131.95 240.95 126.33 238.67 C 120.70 236.39 124.40 229.39 130.00 231.00
M 242.00 237.00 
C 241.01 239.58 238.96 241.43 238.00 244.00
C 231.34 244.91 220.92 247.28 215.97 251.97 C 211.03 256.66 200.66 265.57 203.76 256.75 C 206.85 247.94 214.45 247.08 220.25 242.25 C 226.04 237.41 235.47 234.27 242.00 237.00
M 171.00 243.00 
C 171.94 249.51 178.74 249.83 182.00 254.00
C 176.36 254.42 171.96 258.43 171.00 264.00
C 170.40 257.14 161.58 256.54 160.00 251.00
C 165.73 251.71 168.34 246.49 171.00 243.00
M 213.00 266.00 
C 211.74 257.48 217.95 257.14 224.08 251.08 C 230.22 245.03 241.49 251.22 230.78 254.78 C 220.06 258.33 222.53 262.04 213.00 266.00
M 309.00 289.00 
C 309.62 285.13 309.59 282.84 309.00 279.00
C 306.92 265.36 320.48 260.81 331.00 255.00
C 342.45 283.53 322.91 320.05 291.00 321.00
C 296.90 311.02 309.27 302.62 309.00 289.00
M 136.00 304.00 
C 134.35 287.53 117.64 275.39 102.00 274.00
C 105.60 264.13 122.64 261.23 132.00 261.00 C 141.36 260.77 160.84 269.22 149.08 277.08 C 137.32 284.94 149.34 301.53 136.00 304.00
M 253.00 266.00 
C 255.38 265.67 257.39 267.53 259.00 269.00
C 264.20 273.74 255.43 281.10 252.00 286.00
C 250.75 287.78 249.18 289.45 248.00 291.00
C 246.91 292.44 240.21 307.69 247.75 300.74 C 255.28 293.79 258.94 280.16 268.00 276.00
C 267.26 326.58 221.31 372.57 172.00 376.00
C 174.60 351.01 176.12 320.82 191.75 300.75 C 207.39 280.69 223.11 265.22 249.00 262.00
C 248.12 266.43 239.73 271.45 237.25 274.25 C 234.77 277.05 223.37 283.56 226.78 287.22 C 230.19 290.88 236.36 279.80 239.75 277.75 C 243.15 275.70 248.88 268.33 253.00 266.00
M 192.00 263.00 
C 197.35 265.39 192.95 275.07 187.33 271.67 C 181.71 268.27 187.37 260.93 192.00 263.00
M 395.00 267.00 
C 399.48 268.07 398.48 276.21 393.00 275.00 C 387.51 273.78 390.16 265.84 395.00 267.00
M 186.00 286.00 
C 178.59 286.65 170.84 290.54 171.00 299.00
C 168.56 292.86 161.38 287.03 154.00 285.00
C 160.47 282.37 168.90 279.05 169.00 271.00
C 171.75 278.16 180.46 281.72 186.00 286.00
M 356.00 276.00 
C 355.64 280.73 360.32 284.77 365.00 284.00
C 365.21 289.68 354.30 287.57 356.00 295.00
C 351.09 293.39 349.68 286.47 343.00 286.00
C 348.75 284.45 351.32 278.20 356.00 276.00
M 292.00 305.00 
C 290.47 308.21 283.22 321.96 279.00 322.00
C 278.00 322.01 277.00 321.99 276.00 322.00
C 276.27 313.96 284.48 308.62 285.78 300.78 C 287.07 292.93 286.77 280.69 298.00 281.00
C 299.16 290.15 295.26 296.86 292.00 305.00
M 142.00 327.00 
C 140.03 326.89 137.98 326.94 136.00 327.00
C 128.26 327.22 117.25 330.45 125.00 339.00
C 135.56 333.35 153.39 335.39 160.75 347.25 C 168.11 359.11 160.02 377.18 159.00 390.00
C 170.37 389.45 180.80 385.29 192.00 384.00
C 196.13 398.54 209.88 376.21 221.00 380.00 C 232.12 383.79 245.27 387.16 247.00 401.00
C 248.12 402.50 250.23 403.04 252.00 403.00
C 258.08 402.85 262.93 388.65 271.03 388.03 C 279.12 387.40 291.71 384.26 297.75 391.25 C 303.78 398.25 315.17 402.21 312.23 392.77 C 309.29 383.33 299.82 380.32 292.00 378.00
C 291.98 373.74 289.02 370.29 289.00 366.00
C 299.17 362.49 307.26 366.68 316.23 370.77 C 325.20 374.86 323.30 384.90 330.00 389.00
C 336.18 380.58 339.52 372.11 350.08 368.08 C 360.63 364.04 374.11 365.82 383.00 373.00
C 372.85 391.04 356.50 400.37 337.31 410.31 C 318.11 420.24 294.25 426.86 271.78 428.78 C 249.31 430.70 219.00 426.50 198.98 419.02 C 178.96 411.55 161.18 402.51 145.75 388.25 C 130.32 373.98 118.45 361.23 108.22 342.78 C 98.00 324.32 88.76 302.50 89.00 282.00
C 95.51 283.79 102.81 282.27 109.07 284.93 C 115.33 287.58 118.52 289.73 121.92 296.08 C 125.32 302.42 126.40 307.85 126.00 316.00 C 125.60 324.15 134.72 322.16 136.78 315.78 C 138.83 309.39 150.34 310.48 155.00 310.00 C 159.66 309.52 172.29 311.08 170.22 317.22 C 168.14 323.37 165.98 329.52 165.00 336.00
C 157.70 332.37 150.85 326.91 142.00 327.00
M 278.00 309.00 
C 276.56 311.53 270.36 320.25 270.03 313.97 C 269.69 307.69 274.60 305.18 276.00 300.00
C 276.31 294.26 279.80 283.83 282.97 291.03 C 286.15 298.23 280.76 304.15 278.00 309.00
M 412.00 333.00 
C 407.45 325.90 401.20 317.08 391.77 315.23 C 382.34 313.38 375.94 306.93 370.00 299.00
C 381.21 287.28 398.98 289.65 411.08 298.92 C 423.18 308.19 424.04 325.38 412.00 333.00
M 355.00 304.00 
C 356.14 310.83 362.29 315.09 369.00 315.00
C 366.99 321.24 354.78 320.19 355.00 330.00
C 352.09 323.50 344.74 318.99 339.00 316.00
C 347.29 315.87 351.29 309.03 355.00 304.00
M 332.00 319.00 
C 335.13 321.06 331.42 328.65 327.33 325.67 C 323.24 322.69 328.09 316.42 332.00 319.00
M 406.00 343.00 
C 407.14 347.61 405.85 348.32 403.00 352.00
C 397.06 359.67 393.38 370.64 384.25 362.75 C 375.12 354.86 364.30 356.26 353.99 356.99 C 343.68 357.72 337.56 366.42 329.00 370.00
C 328.31 365.39 322.08 364.68 320.00 361.00
C 316.79 357.89 317.29 359.03 320.00 355.00
C 325.14 347.35 332.83 339.47 343.00 340.00
C 342.30 344.60 346.95 346.83 351.00 346.00
C 355.93 319.98 400.49 314.73 406.00 343.00
M 310.00 328.00 
C 309.80 333.60 314.22 335.66 319.00 337.00
C 313.25 339.24 311.60 346.33 307.00 349.00
C 307.17 343.51 303.60 339.19 298.00 339.00
C 300.14 334.98 306.75 331.92 310.00 328.00
M 286.00 341.00 
C 280.49 341.04 277.57 346.09 277.00 351.00
C 272.04 348.46 272.30 340.24 265.00 340.00
C 267.36 336.24 274.90 336.39 274.00 330.00
C 278.53 331.96 282.59 337.56 286.00 341.00
M 281.00 376.00 
C 270.86 375.49 259.72 380.04 254.00 388.00
C 245.08 380.89 235.68 371.43 223.00 370.00
C 227.46 363.18 235.77 361.60 241.25 354.25 C 246.73 346.90 259.78 351.00 266.25 355.75 C 272.71 360.51 280.67 367.44 281.00 376.00 Z"/>
</g>
<g fill="#FDFDFE" fill-opacity="0.91" stroke="None">
<path d="
M 211.00 97.00 
C 210.15 97.41 210.20 98.36 208.32 99.32 C 206.44 100.28 206.15 97.99 206.00 98.00
C 132.10 120.00 78.84 194.97 87.00 273.00
C 89.01 271.95 90.80 269.70 92.00 268.00
C 93.83 265.41 95.58 261.49 99.00 260.00
C 99.53 261.28 98.03 261.86 98.00 263.00
C 105.54 256.50 112.91 252.23 112.00 241.00 C 111.09 229.77 116.09 220.62 118.07 211.07 C 120.06 201.53 124.72 194.97 129.08 187.08 C 133.44 179.18 138.65 172.92 143.75 165.75 C 148.85 158.58 155.99 154.51 161.75 147.75 C 167.52 141.00 175.95 139.37 182.92 133.92 C 189.88 128.46 197.95 125.32 206.78 121.78 C 215.61 118.24 226.19 116.99 235.99 114.99 C 245.79 112.99 257.87 113.07 268.00 114.00
C 268.33 113.96 268.72 111.98 271.01 112.01 C 273.30 112.04 273.15 113.72 274.00 114.00
C 287.08 118.22 301.34 115.56 313.31 123.69 C 325.27 131.83 333.66 119.41 346.00 117.00
C 341.50 110.43 332.47 107.61 324.23 103.77 C 315.98 99.94 307.11 97.14 297.67 95.33 C 288.23 93.52 276.18 92.00 266.00 92.00
C 260.49 92.00 253.69 91.01 249.00 91.00
C 235.82 92.24 223.33 94.26 211.00 97.00 Z"/>
</g>
<g fill="#D1E5FB" fill-opacity="0.12" stroke="None">
<path d="
M 266.00 92.00 
C 261.09 91.52 254.70 90.47 249.00 91.00
C 253.69 91.01 260.49 92.00 266.00 92.00 Z"/>
</g>
<g fill="#F5F8FE" fill-opacity="0.42" stroke="None">
<path d="
M 206.00 98.00 
C 206.15 97.99 206.44 100.28 208.32 99.32 C 210.20 98.36 210.15 97.41 211.00 97.00
C 209.26 97.39 207.66 97.49 206.00 98.00 Z"/>
</g>
<g fill="#FBFDFE" fill-opacity="0.88" stroke="None">
<path d="
M 379.00 158.00 
C 381.22 159.38 388.05 160.75 388.00 166.00
C 395.65 162.14 393.14 154.48 396.02 146.02 C 398.90 137.57 396.59 130.23 398.00 120.00 C 399.41 109.77 391.02 109.44 383.01 112.01 C 375.00 114.57 368.11 114.81 361.02 118.02 C 353.94 121.24 348.05 121.20 344.00 128.00
C 356.48 135.91 368.11 147.11 379.00 158.00 Z"/>
</g>
<g fill="#F5F9FB" fill-opacity="0.49" stroke="None">
<path d="
M 268.00 114.00 
C 269.98 114.18 272.01 113.86 274.00 114.00
C 273.15 113.72 273.30 112.04 271.01 112.01 C 268.72 111.98 268.33 113.96 268.00 114.00 Z"/>
</g>
<g fill="#F3F8FC" fill-opacity="0.50" stroke="None">
<path d="
M 228.00 123.00 
C 223.15 121.07 220.52 129.81 225.00 132.00 C 229.48 134.18 232.41 124.76 228.00 123.00 Z"/>
</g>
<g fill="#F5FBFE" fill-opacity="0.61" stroke="None">
<path d="
M 272.00 139.00 
C 273.79 140.02 273.86 139.42 276.00 142.00
C 278.47 148.32 284.31 135.85 288.00 134.00
C 281.16 134.06 281.01 126.39 277.00 124.00
C 276.88 129.12 272.77 133.80 267.00 134.00
C 267.84 136.89 270.21 137.01 272.00 139.00 Z"/>
</g>
<g fill="#F7FBFE" fill-opacity="0.72" stroke="None">
<path d="
M 271.00 152.00 
C 265.57 148.72 258.85 149.44 253.75 145.25 C 248.65 141.06 249.33 133.55 246.00 130.00
C 246.36 143.40 234.63 150.36 223.00 152.00
C 233.43 153.40 246.66 158.48 245.00 172.00
C 250.30 170.52 248.09 161.15 253.77 157.77 C 259.46 154.39 265.38 154.39 271.00 152.00 Z"/>
</g>
<g fill="#EFF8FE" fill-opacity="0.61" stroke="None">
<path d="
M 207.00 143.00 
C 208.64 143.93 208.90 144.46 210.75 145.25 C 212.59 146.05 211.06 149.11 211.00 149.00
C 211.96 149.97 213.66 149.29 215.00 151.00
C 216.18 146.80 220.37 143.17 225.00 143.00
C 223.08 137.96 216.11 135.22 213.00 131.00
C 214.82 137.68 207.49 138.87 203.00 140.00
C 202.12 143.15 205.75 142.29 207.00 143.00 Z"/>
</g>
<g fill="#FCFDFE" fill-opacity="0.92" stroke="None">
<path d="
M 331.00 135.00 
C 329.47 136.70 329.60 136.67 326.00 138.00
C 299.36 155.18 279.64 183.17 269.00 212.00
C 273.99 215.65 278.99 220.20 284.00 224.00
C 286.49 225.01 287.58 225.80 289.00 228.00
C 296.79 235.06 303.31 238.02 310.75 246.25 C 318.19 254.48 327.51 247.88 334.75 241.75 C 342.00 235.63 350.71 230.70 356.25 223.25 C 361.79 215.80 370.07 207.21 373.22 200.22 C 376.37 193.24 387.52 178.94 383.00 174.00
C 380.24 170.40 375.66 167.81 373.00 164.00
C 370.48 160.40 367.30 156.30 364.00 153.00
C 358.65 148.42 354.17 143.69 348.23 139.77 C 342.29 135.85 336.93 131.29 331.00 135.00
M 333.00 164.00 
C 358.23 164.84 357.16 206.14 331.00 205.00 C 304.83 203.86 307.69 163.16 333.00 164.00
M 304.00 212.00 
C 301.46 212.02 300.40 212.08 299.00 210.00
C 290.34 197.13 317.76 211.88 304.00 212.00
M 313.00 222.00 
C 307.00 216.23 317.32 214.19 313.00 222.00 Z"/>
</g>
<g fill="#E0E9FD" fill-opacity="0.36" stroke="None">
<path d="
M 326.00 138.00 
C 329.60 136.67 329.47 136.70 331.00 135.00
C 329.51 135.93 327.50 137.02 326.00 138.00 Z"/>
</g>
<g fill="#7AB7FF" fill-opacity="0.02" stroke="None">
<path d="
M 272.00 139.00 
C 274.08 141.30 274.07 140.93 276.00 142.00
C 273.86 139.42 273.79 140.02 272.00 139.00 Z"/>
</g>
<g fill="#FAFCFE" fill-opacity="0.81" stroke="None">
<path d="
M 186.00 204.00 
C 186.82 203.58 189.33 203.60 190.00 203.00
C 192.48 190.40 198.01 182.37 211.00 180.00
C 211.67 179.69 215.02 176.64 215.00 175.00
C 206.33 173.99 199.40 170.49 194.77 163.23 C 190.15 155.97 190.91 145.93 187.00 140.00
C 185.66 149.85 184.80 160.17 177.92 167.92 C 171.03 175.66 159.26 172.45 151.00 177.00
C 169.54 177.94 182.78 184.54 186.00 204.00 Z"/>
</g>
<g fill="#68A9FF" fill-opacity="0.01" stroke="None">
<path d="
M 211.00 149.00 
C 211.06 149.11 212.59 146.05 210.75 145.25 C 208.90 144.46 208.64 143.93 207.00 143.00
C 208.71 144.61 209.28 147.34 211.00 149.00 Z"/>
</g>
<g fill="#B5CFFF" fill-opacity="0.06" stroke="None">
<path d="
M 373.00 164.00 
C 375.41 166.93 379.45 169.27 382.00 172.00
C 377.00 164.70 370.81 158.82 364.00 153.00
C 367.30 156.30 370.48 160.40 373.00 164.00 Z"/>
</g>
<g fill="#CDDFFF" fill-opacity="0.33" stroke="None">
<path d="
M 379.00 158.00 
C 380.43 159.43 386.24 165.89 388.00 166.00
C 388.05 160.75 381.22 159.38 379.00 158.00 Z"/>
</g>
<g fill="#FCFDFE" fill-opacity="0.89" stroke="None">
<path d="
M 406.00 285.00 
C 416.28 286.21 425.05 304.97 428.22 292.22 C 431.39 279.47 433.63 268.40 433.00 255.00 C 432.37 241.60 430.13 230.51 426.93 219.07 C 423.73 207.63 420.90 197.78 416.31 187.69 C 411.71 177.61 406.83 169.22 400.00 162.00
C 395.80 175.18 387.20 186.23 395.08 198.92 C 402.95 211.62 403.59 224.79 407.01 238.99 C 410.43 253.19 409.14 270.86 406.00 285.00 Z"/>
</g>
<g fill="#EDF5FC" fill-opacity="0.58" stroke="None">
<path d="
M 275.00 173.00 
C 268.09 174.36 268.58 165.20 264.00 164.00
C 263.45 169.11 259.44 173.34 254.00 173.00
C 254.61 177.08 260.19 176.79 261.00 182.00
C 263.63 177.59 262.60 185.94 267.00 184.00
C 265.37 177.11 275.14 178.16 275.00 173.00 Z"/>
</g>
<g fill="#000000" fill-opacity="0.00" stroke="None">
<path d="
M 333.00 164.00 
C 307.69 163.16 304.83 203.86 331.00 205.00 C 357.16 206.14 358.23 164.84 333.00 164.00
M 338.00 172.00 
C 341.33 172.47 343.42 178.42 345.70 180.30 C 347.98 182.17 345.33 193.60 340.97 191.97 C 336.61 190.35 340.65 182.50 336.70 180.30 C 332.76 178.09 332.11 171.17 338.00 172.00 Z"/>
</g>
<g fill="#F7FBFF" fill-opacity="0.60" stroke="None">
<path d="
M 383.00 174.00 
C 382.64 173.61 382.34 172.50 382.00 172.00
C 379.45 169.27 375.41 166.93 373.00 164.00
C 375.66 167.81 380.24 170.40 383.00 174.00 Z"/>
</g>
<g fill="#F0F7FE" fill-opacity="0.62" stroke="None">
<path d="
M 338.00 172.00 
C 332.11 171.17 332.76 178.09 336.70 180.30 C 340.65 182.50 336.61 190.35 340.97 191.97 C 345.33 193.60 347.98 182.17 345.70 180.30 C 343.42 178.42 341.33 172.47 338.00 172.00 Z"/>
</g>
<g fill="#EEF9FC" fill-opacity="0.29" stroke="None">
<path d="
M 211.00 180.00 
C 215.16 178.55 220.37 179.12 224.00 177.00
C 221.92 174.44 218.02 175.50 215.00 175.00
C 215.02 176.64 211.67 179.69 211.00 180.00 Z"/>
</g>
<g fill="#F5F8FE" fill-opacity="0.57" stroke="None">
<path d="
M 233.00 182.00 
C 228.78 179.15 223.28 185.43 227.78 189.22 C 232.28 193.01 237.17 184.82 233.00 182.00 Z"/>
</g>
<g fill="#FBFBFE" fill-opacity="0.51" stroke="None">
<path d="
M 138.00 200.00 
C 152.02 200.85 135.80 185.09 138.00 200.00 Z"/>
</g>
<g fill="#FCFDFE" fill-opacity="0.85" stroke="None">
<path d="
M 237.00 227.00 
C 241.31 226.30 247.51 226.70 251.00 223.00
C 254.16 215.54 261.72 210.04 263.00 202.00
C 230.75 194.21 197.96 219.82 196.00 252.00
C 206.91 240.22 219.59 227.94 237.00 227.00 Z"/>
</g>
<g fill="#DBE9FF" fill-opacity="0.12" stroke="None">
<path d="
M 153.00 209.00 
C 153.96 206.83 155.76 205.92 157.00 208.00
C 157.30 205.89 156.89 202.59 154.00 203.00
C 154.73 205.19 153.35 207.13 153.00 209.00 Z"/>
</g>
<g fill="#E8F3FE" fill-opacity="0.33" stroke="None">
<path d="
M 186.00 204.00 
C 186.01 206.77 185.52 210.30 188.00 212.00
C 189.76 209.75 189.42 205.93 190.00 203.00
C 189.33 203.60 186.82 203.58 186.00 204.00 Z"/>
</g>
<g fill="#E7FDFE" fill-opacity="0.55" stroke="None">
<path d="
M 299.00 210.00 
C 299.24 210.43 300.37 207.30 299.00 207.00
C 302.61 203.90 305.09 208.68 304.00 212.00
C 317.76 211.88 290.34 197.13 299.00 210.00 Z"/>
</g>
<g fill="#EBF2FF" fill-opacity="0.56" stroke="None">
<path d="
M 129.00 214.00 
C 132.79 214.45 139.00 211.20 134.25 206.76 C 129.49 202.31 126.77 210.20 129.00 214.00 Z"/>
</g>
<g fill="#F8FBFE" fill-opacity="0.75" stroke="None">
<path d="
M 153.00 209.00 
C 154.75 221.79 140.95 225.06 132.00 227.00
C 135.72 230.51 143.60 229.07 148.25 233.75 C 152.90 238.44 152.71 244.61 155.00 250.00
C 157.64 241.77 159.10 232.68 169.00 230.00
C 169.50 229.66 169.77 226.58 172.00 228.00
C 171.43 226.87 169.48 226.88 170.00 225.00
C 160.35 222.42 159.13 216.88 157.00 208.00
C 155.76 205.92 153.96 206.83 153.00 209.00 Z"/>
</g>
<g fill="#000000" fill-opacity="0.00" stroke="None">
<path d="
M 299.00 210.00 
C 300.40 212.08 301.46 212.02 304.00 212.00
C 305.09 208.68 302.61 203.90 299.00 207.00
C 300.37 207.30 299.24 210.43 299.00 210.00 Z"/>
</g>
<g fill="#F0F8FE" fill-opacity="0.58" stroke="None">
<path d="
M 393.00 219.00 
C 391.71 216.63 391.40 212.13 388.00 212.00
C 384.94 215.17 386.98 219.14 381.01 220.01 C 375.04 220.88 378.73 224.45 383.30 224.70 C 387.86 224.96 384.66 232.72 390.00 232.00
C 389.76 224.75 398.13 225.79 400.00 221.00
C 397.41 220.90 395.97 217.89 393.00 219.00 Z"/>
</g>
<g fill="#000000" fill-opacity="0.00" stroke="None">
<path d="
M 313.00 222.00 
C 317.32 214.19 307.00 216.23 313.00 222.00 Z"/>
</g>
<g fill="#F5FAFE" fill-opacity="0.67" stroke="None">
<path d="
M 261.00 225.00 
C 274.00 235.27 287.82 246.75 300.75 257.25 C 313.67 267.76 310.96 254.64 303.25 249.75 C 295.53 244.87 290.55 238.52 283.75 233.25 C 276.95 227.98 271.19 222.19 264.00 218.00
C 263.39 220.57 260.39 222.08 261.00 225.00 Z"/>
</g>
<g fill="#E2EBFC" fill-opacity="0.07" stroke="None">
<path d="
M 237.00 227.00 
C 243.08 226.67 247.11 228.24 251.00 223.00
C 247.51 226.70 241.31 226.30 237.00 227.00 Z"/>
</g>
<g fill="#F7F9FE" fill-opacity="0.20" stroke="None">
<path d="
M 284.00 224.00 
C 285.53 225.16 287.80 226.91 289.00 228.00
C 287.58 225.80 286.49 225.01 284.00 224.00 Z"/>
</g>
<g fill="#EDF6FD" fill-opacity="0.35" stroke="None">
<path d="
M 169.00 230.00 
C 172.02 228.07 177.15 230.66 179.00 227.00
C 176.73 225.40 172.87 225.77 170.00 225.00
C 169.48 226.88 171.43 226.87 172.00 228.00
C 169.77 226.58 169.50 229.66 169.00 230.00 Z"/>
</g>
<g fill="#F8FBFE" fill-opacity="0.73" stroke="None">
<path d="
M 372.00 270.00 
C 372.97 268.61 374.92 269.66 376.00 269.00
C 378.50 257.72 389.66 254.76 399.00 252.00
C 393.37 249.52 386.57 249.97 381.25 245.75 C 375.92 241.54 377.45 233.49 374.00 229.00
C 374.50 242.80 363.29 251.22 350.00 252.00
C 360.75 254.44 369.74 257.86 372.00 270.00 Z"/>
</g>
<g fill="#FAFCFE" fill-opacity="0.84" stroke="None">
<path d="
M 272.00 264.00 
C 274.68 265.99 277.87 267.67 280.70 269.30 C 283.52 270.94 285.46 276.17 289.00 276.00
C 292.48 272.82 298.84 270.46 299.00 265.00
C 284.55 254.36 272.17 238.58 256.00 230.00
C 249.85 236.92 246.14 243.56 254.75 248.25 C 263.37 252.93 265.39 257.82 272.00 264.00 Z"/>
</g>
<g fill="#F4FAFC" fill-opacity="0.53" stroke="None">
<path d="
M 130.00 231.00 
C 124.40 229.39 120.70 236.39 126.33 238.67 C 131.95 240.95 135.78 232.66 130.00 231.00 Z"/>
</g>
<g fill="#E9F5FF" fill-opacity="0.60" stroke="None">
<path d="
M 242.00 237.00 
C 235.47 234.27 226.04 237.41 220.25 242.25 C 214.45 247.08 206.85 247.94 203.76 256.75 C 200.66 265.57 211.03 256.66 215.97 251.97 C 220.92 247.28 231.34 244.91 238.00 244.00
C 238.96 241.43 241.01 239.58 242.00 237.00 Z"/>
</g>
<g fill="#F7FAFD" fill-opacity="0.65" stroke="None">
<path d="
M 171.00 243.00 
C 168.34 246.49 165.73 251.71 160.00 251.00
C 161.58 256.54 170.40 257.14 171.00 264.00
C 171.96 258.43 176.36 254.42 182.00 254.00
C 178.74 249.83 171.94 249.51 171.00 243.00 Z"/>
</g>
<g fill="#EAF4FF" fill-opacity="0.56" stroke="None">
<path d="
M 213.00 266.00 
C 222.53 262.04 220.06 258.33 230.78 254.78 C 241.49 251.22 230.22 245.03 224.08 251.08 C 217.95 257.14 211.74 257.48 213.00 266.00 Z"/>
</g>
<g fill="#FCFDFE" fill-opacity="0.87" stroke="None">
<path d="
M 309.00 279.00 
C 309.34 280.15 310.99 280.97 311.00 284.00 C 311.00 287.03 309.40 287.72 309.00 289.00
C 309.27 302.62 296.90 311.02 291.00 321.00
C 322.91 320.05 342.45 283.53 331.00 255.00
C 320.48 260.81 306.92 265.36 309.00 279.00 Z"/>
</g>
<g fill="#ECF0FF" fill-opacity="0.16" stroke="None">
<path d="
M 92.00 268.00 
C 93.98 266.36 96.11 264.63 98.00 263.00
C 98.03 261.86 99.53 261.28 99.00 260.00
C 95.58 261.49 93.83 265.41 92.00 268.00 Z"/>
</g>
<g fill="#FAFDFE" fill-opacity="0.85" stroke="None">
<path d="
M 136.00 304.00 
C 149.34 301.53 137.32 284.94 149.08 277.08 C 160.84 269.22 141.36 260.77 132.00 261.00 C 122.64 261.23 105.60 264.13 102.00 274.00
C 117.64 275.39 134.35 287.53 136.00 304.00 Z"/>
</g>
<g fill="#FDFDFE" fill-opacity="0.93" stroke="None">
<path d="
M 248.00 291.00 
C 249.19 288.36 249.37 288.43 252.00 286.00
C 255.43 281.10 264.20 273.74 259.00 269.00
C 257.50 268.17 251.24 268.68 248.25 273.25 C 245.26 277.82 240.51 280.22 237.00 284.00
C 240.32 276.96 248.56 272.51 253.00 266.00
C 248.88 268.33 243.15 275.70 239.75 277.75 C 236.36 279.80 230.19 290.88 226.78 287.22 C 223.37 283.56 234.77 277.05 237.25 274.25 C 239.73 271.45 248.12 266.43 249.00 262.00
C 223.11 265.22 207.39 280.69 191.75 300.75 C 176.12 320.82 174.60 351.01 172.00 376.00
C 221.31 372.57 267.26 326.58 268.00 276.00
C 258.94 280.16 255.28 293.79 247.75 300.74 C 240.21 307.69 246.91 292.44 248.00 291.00
M 232.00 276.00 
C 231.00 279.34 227.37 283.06 224.00 284.00
C 226.21 281.04 229.02 278.10 232.00 276.00 Z"/>
</g>
<g fill="#F7FAFD" fill-opacity="0.62" stroke="None">
<path d="
M 192.00 263.00 
C 187.37 260.93 181.71 268.27 187.33 271.67 C 192.95 275.07 197.35 265.39 192.00 263.00 Z"/>
</g>
<g fill="#D1E2FF" fill-opacity="0.12" stroke="None">
<path d="
M 289.00 276.00 
C 285.46 276.17 283.52 270.94 280.70 269.30 C 277.87 267.67 274.68 265.99 272.00 264.00
C 275.78 267.53 284.09 277.57 289.00 276.00 Z"/>
</g>
<g fill="#F8FCFE" fill-opacity="0.62" stroke="None">
<path d="
M 259.00 269.00 
C 257.39 267.53 255.38 265.67 253.00 266.00
C 248.56 272.51 240.32 276.96 237.00 284.00
C 240.51 280.22 245.26 277.82 248.25 273.25 C 251.24 268.68 257.50 268.17 259.00 269.00 Z"/>
</g>
<g fill="#F1F6FE" fill-opacity="0.53" stroke="None">
<path d="
M 395.00 267.00 
C 390.16 265.84 387.51 273.78 393.00 275.00 C 398.48 276.21 399.48 268.07 395.00 267.00 Z"/>
</g>
<g fill="#DFEFFF" fill-opacity="0.29" stroke="None">
<path d="
M 372.00 270.00 
C 373.28 272.72 371.59 278.42 375.00 279.00
C 376.31 275.86 375.23 272.27 376.00 269.00
C 374.92 269.66 372.97 268.61 372.00 270.00 Z"/>
</g>
<g fill="#F3F8FE" fill-opacity="0.66" stroke="None">
<path d="
M 186.00 286.00 
C 180.46 281.72 171.75 278.16 169.00 271.00
C 168.90 279.05 160.47 282.37 154.00 285.00
C 161.38 287.03 168.56 292.86 171.00 299.00
C 170.84 290.54 178.59 286.65 186.00 286.00 Z"/>
</g>
<g fill="#FDFDFE" fill-opacity="0.60" stroke="None">
<path d="
M 232.00 276.00 
C 229.02 278.10 226.21 281.04 224.00 284.00
C 227.37 283.06 231.00 279.34 232.00 276.00 Z"/>
</g>
<g fill="#F6F9FD" fill-opacity="0.61" stroke="None">
<path d="
M 356.00 276.00 
C 351.32 278.20 348.75 284.45 343.00 286.00
C 349.68 286.47 351.09 293.39 356.00 295.00
C 354.30 287.57 365.21 289.68 365.00 284.00
C 360.32 284.77 355.64 280.73 356.00 276.00 Z"/>
</g>
<g fill="#EAF6FE" fill-opacity="0.52" stroke="None">
<path d="
M 309.00 289.00 
C 309.40 287.72 311.00 287.03 311.00 284.00 C 310.99 280.97 309.34 280.15 309.00 279.00
C 309.59 282.84 309.62 285.13 309.00 289.00 Z"/>
</g>
<g fill="#EFF8FF" fill-opacity="0.68" stroke="None">
<path d="
M 279.00 322.00 
C 281.17 321.69 283.69 315.11 285.25 313.25 C 286.82 311.39 290.68 307.07 292.00 305.00
C 295.26 296.86 299.16 290.15 298.00 281.00
C 286.77 280.69 287.07 292.93 285.78 300.78 C 284.48 308.62 276.27 313.96 276.00 322.00
C 277.00 321.99 278.00 322.01 279.00 322.00 Z"/>
</g>
<g fill="#FDFDFE" fill-opacity="0.92" stroke="None">
<path d="
M 252.00 403.00 
C 252.65 403.48 253.63 404.15 254.00 405.00
C 251.26 405.82 245.13 403.90 247.00 401.00
C 245.27 387.16 232.12 383.79 221.00 380.00 C 209.88 376.21 196.13 398.54 192.00 384.00
C 180.80 385.29 170.37 389.45 159.00 390.00
C 160.02 377.18 168.11 359.11 160.75 347.25 C 153.39 335.39 135.56 333.35 125.00 339.00
C 117.25 330.45 128.26 327.22 136.00 327.00
C 135.25 327.25 140.80 322.60 144.00 325.00
C 143.92 326.26 141.94 325.56 142.00 327.00
C 150.85 326.91 157.70 332.37 165.00 336.00
C 165.98 329.52 168.14 323.37 170.22 317.22 C 172.29 311.08 159.66 309.52 155.00 310.00 C 150.34 310.48 138.83 309.39 136.78 315.78 C 134.72 322.16 125.60 324.15 126.00 316.00 C 126.40 307.85 125.32 302.42 121.92 296.08 C 118.52 289.73 115.33 287.58 109.07 284.93 C 102.81 282.27 95.51 283.79 89.00 282.00
C 88.76 302.50 98.00 324.32 108.22 342.78 C 118.45 361.23 130.32 373.98 145.75 388.25 C 161.18 402.51 178.96 411.55 198.98 419.02 C 219.00 426.50 249.31 430.70 271.78 428.78 C 294.25 426.86 318.11 420.24 337.31 410.31 C 356.50 400.37 372.85 391.04 383.00 373.00
C 374.11 365.82 360.63 364.04 350.08 368.08 C 339.52 372.11 336.18 380.58 330.00 389.00
C 323.30 384.90 325.20 374.86 316.23 370.77 C 307.26 366.68 299.17 362.49 289.00 366.00
C 289.02 370.29 291.98 373.74 292.00 378.00
C 299.82 380.32 309.29 383.33 312.23 392.77 C 315.17 402.21 303.78 398.25 297.75 391.25 C 291.71 384.26 279.12 387.40 271.03 388.03 C 262.93 388.65 258.08 402.85 252.00 403.00 Z"/>
</g>
<g fill="#CCF4FC" fill-opacity="0.28" stroke="None">
<path d="
M 248.00 291.00 
C 249.18 289.45 250.75 287.78 252.00 286.00
C 249.37 288.43 249.19 288.36 248.00 291.00 Z"/>
</g>
<g fill="#EBF5FF" fill-opacity="0.60" stroke="None">
<path d="
M 276.00 300.00 
C 275.77 304.30 278.07 307.19 278.00 309.00
C 280.76 304.15 286.15 298.23 282.97 291.03 C 279.80 283.83 276.31 294.26 276.00 300.00 Z"/>
</g>
<g fill="#FBFDFE" fill-opacity="0.85" stroke="None">
<path d="
M 412.00 333.00 
C 424.04 325.38 423.18 308.19 411.08 298.92 C 398.98 289.65 381.21 287.28 370.00 299.00
C 375.94 306.93 382.34 313.38 391.77 315.23 C 401.20 317.08 407.45 325.90 412.00 333.00 Z"/>
</g>
<g fill="#E3F0FF" fill-opacity="0.44" stroke="None">
<path d="
M 278.00 309.00 
C 278.07 307.19 275.77 304.30 276.00 300.00
C 274.60 305.18 269.69 307.69 270.03 313.97 C 270.36 320.25 276.56 311.53 278.00 309.00 Z"/>
</g>
<g fill="#F6FAFE" fill-opacity="0.67" stroke="None">
<path d="
M 355.00 304.00 
C 351.29 309.03 347.29 315.87 339.00 316.00
C 344.74 318.99 352.09 323.50 355.00 330.00
C 354.78 320.19 366.99 321.24 369.00 315.00
C 362.29 315.09 356.14 310.83 355.00 304.00 Z"/>
</g>
<g fill="#CBEAFF" fill-opacity="0.11" stroke="None">
<path d="
M 279.00 322.00 
C 283.22 321.96 290.47 308.21 292.00 305.00
C 290.68 307.07 286.82 311.39 285.25 313.25 C 283.69 315.11 281.17 321.69 279.00 322.00 Z"/>
</g>
<g fill="#F5F8FE" fill-opacity="0.56" stroke="None">
<path d="
M 332.00 319.00 
C 328.09 316.42 323.24 322.69 327.33 325.67 C 331.42 328.65 335.13 321.06 332.00 319.00 Z"/>
</g>
<g fill="#FCFEFE" fill-opacity="0.89" stroke="None">
<path d="
M 320.00 355.00 
C 320.03 354.87 320.96 363.01 320.00 361.00
C 322.08 364.68 328.31 365.39 329.00 370.00
C 337.56 366.42 343.68 357.72 353.99 356.99 C 364.30 356.26 375.12 354.86 384.25 362.75 C 393.38 370.64 397.06 359.67 403.00 352.00
C 403.81 350.50 406.20 346.15 406.00 343.00
C 400.49 314.73 355.93 319.98 351.00 346.00
C 346.95 346.83 342.30 344.60 343.00 340.00
C 332.83 339.47 325.14 347.35 320.00 355.00 Z"/>
</g>
<g fill="#E1ECFB" fill-opacity="0.41" stroke="None">
<path d="
M 136.00 327.00 
C 137.98 326.94 140.03 326.89 142.00 327.00
C 141.94 325.56 143.92 326.26 144.00 325.00
C 140.80 322.60 135.25 327.25 136.00 327.00 Z"/>
</g>
<g fill="#F4F7FE" fill-opacity="0.60" stroke="None">
<path d="
M 310.00 328.00 
C 306.75 331.92 300.14 334.98 298.00 339.00
C 303.60 339.19 307.17 343.51 307.00 349.00
C 311.60 346.33 313.25 339.24 319.00 337.00
C 314.22 335.66 309.80 333.60 310.00 328.00 Z"/>
</g>
<g fill="#F5F8FE" fill-opacity="0.63" stroke="None">
<path d="
M 286.00 341.00 
C 282.59 337.56 278.53 331.96 274.00 330.00
C 274.90 336.39 267.36 336.24 265.00 340.00
C 272.30 340.24 272.04 348.46 277.00 351.00
C 277.57 346.09 280.49 341.04 286.00 341.00 Z"/>
</g>
<g fill="#E5F4FF" fill-opacity="0.13" stroke="None">
<path d="
M 403.00 352.00 
C 405.85 348.32 407.14 347.61 406.00 343.00
C 406.20 346.15 403.81 350.50 403.00 352.00 Z"/>
</g>
<g fill="#FBFDFE" fill-opacity="0.87" stroke="None">
<path d="
M 281.00 376.00 
C 280.67 367.44 272.71 360.51 266.25 355.75 C 259.78 351.00 246.73 346.90 241.25 354.25 C 235.77 361.60 227.46 363.18 223.00 370.00
C 235.68 371.43 245.08 380.89 254.00 388.00
C 259.72 380.04 270.86 375.49 281.00 376.00 Z"/>
</g>
<g fill="#E7F2FF" fill-opacity="0.36" stroke="None">
<path d="
M 320.00 361.00 
C 320.96 363.01 320.03 354.87 320.00 355.00
C 317.29 359.03 316.79 357.89 320.00 361.00 Z"/>
</g>
<g fill="#EEFBFD" fill-opacity="0.45" stroke="None">
<path d="
M 252.00 403.00 
C 250.23 403.04 248.12 402.50 247.00 401.00
C 245.13 403.90 251.26 405.82 254.00 405.00
C 253.63 404.15 252.65 403.48 252.00 403.00 Z"/>
</g>
</svg>