<svg width="512" height="512" viewBox="0 0 512 512" fill="none" xmlns="http://www.w3.org/2000/svg">
<path d="M211 97C210.15 97.41 210.2 98.36 208.32 99.32C206.44 100.28 206.15 97.99 206 98C132.1 120 78.84 194.97 87 273C89.01 271.95 90.8 269.7 92 268C93.83 265.41 95.58 261.49 99 260C99.53 261.28 98.03 261.86 98 263C105.54 256.5 112.91 252.23 112 241C111.09 229.77 116.09 220.62 118.07 211.07C120.06 201.53 124.72 194.97 129.08 187.08C133.44 179.18 138.65 172.92 143.75 165.75C148.85 158.58 155.99 154.51 161.75 147.75C167.52 141 175.95 139.37 182.92 133.92C189.88 128.46 197.95 125.32 206.78 121.78C215.61 118.24 226.19 116.99 235.99 114.99C245.79 112.99 257.87 113.07 268 114C268.33 113.96 268.72 111.98 271.01 112.01C273.3 112.04 273.15 113.72 274 114C287.08 118.22 301.34 115.56 313.31 123.69C325.27 131.83 333.66 119.41 346 117C341.5 110.43 332.47 107.61 324.23 103.77C315.98 99.94 307.11 97.14 297.67 95.33C288.23 93.52 276.18 92 266 92C260.49 92 253.69 91.01 249 91C235.82 92.24 223.33 94.26 211 97Z" fill="#FC9700"/>
<path d="M266 92C261.09 91.52 254.7 90.47 249 91C253.69 91.01 260.49 92 266 92Z" fill="#FC9700"/>
<path d="M206 98C206.15 97.99 206.44 100.28 208.32 99.32C210.2 98.36 210.15 97.41 211 97C209.26 97.39 207.66 97.49 206 98Z" fill="#FC9700"/>
<path d="M379 158C381.22 159.38 388.05 160.75 388 166C395.65 162.14 393.14 154.48 396.02 146.02C398.9 137.57 396.59 130.23 398 120C399.41 109.77 391.02 109.44 383.01 112.01C375 114.57 368.11 114.81 361.02 118.02C353.94 121.24 348.05 121.2 344 128C356.48 135.91 368.11 147.11 379 158Z" fill="#FC9700"/>
<path d="M268 114C269.98 114.18 272.01 113.86 274 114C273.15 113.72 273.3 112.04 271.01 112.01C268.72 111.98 268.33 113.96 268 114Z" fill="#FC9700"/>
<path d="M228 123C223.15 121.07 220.52 129.81 225 132C229.48 134.18 232.41 124.76 228 123Z" fill="#FC9700"/>
<path d="M272 139C273.79 140.02 273.86 139.42 276 142C278.47 148.32 284.31 135.85 288 134C281.16 134.06 281.01 126.39 277 124C276.88 129.12 272.77 133.8 267 134C267.84 136.89 270.21 137.01 272 139Z" fill="#FC9700"/>
<path d="M271 152C265.57 148.72 258.85 149.44 253.75 145.25C248.65 141.06 249.33 133.55 246 130C246.36 143.4 234.63 150.36 223 152C233.43 153.4 246.66 158.48 245 172C250.3 170.52 248.09 161.15 253.77 157.77C259.46 154.39 265.38 154.39 271 152Z" fill="#FC9700"/>
<path d="M207 143C208.64 143.93 208.9 144.46 210.75 145.25C212.59 146.05 211.06 149.11 211 149C211.96 149.97 213.66 149.29 215 151C216.18 146.8 220.37 143.17 225 143C223.08 137.96 216.11 135.22 213 131C214.82 137.68 207.49 138.87 203 140C202.12 143.15 205.75 142.29 207 143Z" fill="#FC9700"/>
<path d="M331 135C329.47 136.7 329.6 136.67 326 138C299.36 155.18 279.64 183.17 269 212C273.99 215.65 278.99 220.2 284 224C286.49 225.01 287.58 225.8 289 228C296.79 235.06 303.31 238.02 310.75 246.25C318.19 254.48 327.51 247.88 334.75 241.75C342 235.63 350.71 230.7 356.25 223.25C361.79 215.8 370.07 207.21 373.22 200.22C376.37 193.24 387.52 178.94 383 174C380.24 170.4 375.66 167.81 373 164C370.48 160.4 367.3 156.3 364 153C358.65 148.42 354.17 143.69 348.23 139.77C342.29 135.85 336.93 131.29 331 135ZM333 164C358.23 164.84 357.16 206.14 331 205C304.83 203.86 307.69 163.16 333 164ZM304 212C301.46 212.02 300.4 212.08 299 210C290.34 197.13 317.76 211.88 304 212ZM313 222C317.32 214.19 307 216.23 313 222Z" fill="#FC9700"/>
<path d="M326 138C329.6 136.67 329.47 136.7 331 135C329.51 135.93 327.5 137.02 326 138Z" fill="#FC9700"/>
<path d="M272 139C274.08 141.3 274.07 140.93 276 142C273.86 139.42 273.79 140.02 272 139Z" fill="#FC9700"/>
<path d="M186 204C186.82 203.58 189.33 203.6 190 203C192.48 190.4 198.01 182.37 211 180C211.67 179.69 215.02 176.64 215 175C206.33 173.99 199.4 170.49 194.77 163.23C190.15 155.97 190.91 145.93 187 140C185.66 149.85 184.8 160.17 177.92 167.92C171.03 175.66 159.26 172.45 151 177C169.54 177.94 182.78 184.54 186 204Z" fill="#FC9700"/>
<path d="M211 149C211.06 149.11 212.59 146.05 210.75 145.25C208.9 144.46 208.64 143.93 207 143C208.71 144.61 209.28 147.34 211 149Z" fill="#FC9700"/>
<path d="M373 164C375.41 166.93 379.45 169.27 382 172C377 164.7 370.81 158.82 364 153C367.3 156.3 370.48 160.4 373 164Z" fill="#FC9700"/>
<path d="M379 158C380.43 159.43 386.24 165.89 388 166C388.05 160.75 381.22 159.38 379 158Z" fill="#FC9700"/>
<path d="M406 285C416.28 286.21 425.05 304.97 428.22 292.22C431.39 279.47 433.63 268.4 433 255C432.37 241.6 430.13 230.51 426.93 219.07C423.73 207.63 420.9 197.78 416.31 187.69C411.71 177.61 406.83 169.22 400 162C395.8 175.18 387.2 186.23 395.08 198.92C402.95 211.62 403.59 224.79 407.01 238.99C410.43 253.19 409.14 270.86 406 285Z" fill="#FC9700"/>
<path d="M275 173C268.09 174.36 268.58 165.2 264 164C263.45 169.11 259.44 173.34 254 173C254.61 177.08 260.19 176.79 261 182C263.63 177.59 262.6 185.94 267 184C265.37 177.11 275.14 178.16 275 173Z" fill="#FC9700"/>
<path d="M383 174C382.64 173.61 382.34 172.5 382 172C379.45 169.27 375.41 166.93 373 164C375.66 167.81 380.24 170.4 383 174Z" fill="#FC9700"/>
<path d="M338 172C332.11 171.17 332.76 178.09 336.7 180.3C340.65 182.5 336.61 190.35 340.97 191.97C345.33 193.6 347.98 182.17 345.7 180.3C343.42 178.42 341.33 172.47 338 172Z" fill="#FC9700"/>
<path d="M211 180C215.16 178.55 220.37 179.12 224 177C221.92 174.44 218.02 175.5 215 175C215.02 176.64 211.67 179.69 211 180Z" fill="#FC9700"/>
<path d="M233 182C228.78 179.15 223.28 185.43 227.78 189.22C232.28 193.01 237.17 184.82 233 182Z" fill="#FC9700"/>
<path d="M138 200C152.02 200.85 135.8 185.09 138 200Z" fill="#FC9700"/>
<path d="M237 227C241.31 226.3 247.51 226.7 251 223C254.16 215.54 261.72 210.04 263 202C230.75 194.21 197.96 219.82 196 252C206.91 240.22 219.59 227.94 237 227Z" fill="#FC9700"/>
<path d="M153 209C153.96 206.83 155.76 205.92 157 208C157.3 205.89 156.89 202.59 154 203C154.73 205.19 153.35 207.13 153 209Z" fill="#FC9700"/>
<path d="M186 204C186.01 206.77 185.52 210.3 188 212C189.76 209.75 189.42 205.93 190 203C189.33 203.6 186.82 203.58 186 204Z" fill="#FC9700"/>
<path d="M299 210C299.24 210.43 300.37 207.3 299 207C302.61 203.9 305.09 208.68 304 212C317.76 211.88 290.34 197.13 299 210Z" fill="#FC9700"/>
<path d="M129 214C132.79 214.45 139 211.2 134.25 206.76C129.49 202.31 126.77 210.2 129 214Z" fill="#FC9700"/>
<path d="M153 209C154.75 221.79 140.95 225.06 132 227C135.72 230.51 143.6 229.07 148.25 233.75C152.9 238.44 152.71 244.61 155 250C157.64 241.77 159.1 232.68 169 230C169.5 229.66 169.77 226.58 172 228C171.43 226.87 169.48 226.88 170 225C160.35 222.42 159.13 216.88 157 208C155.76 205.92 153.96 206.83 153 209Z" fill="#FC9700"/>
<path d="M393 219C391.71 216.63 391.4 212.13 388 212C384.94 215.17 386.98 219.14 381.01 220.01C375.04 220.88 378.73 224.45 383.3 224.7C387.86 224.96 384.66 232.72 390 232C389.76 224.75 398.13 225.79 400 221C397.41 220.9 395.97 217.89 393 219Z" fill="#FC9700"/>
<path d="M261 225C274 235.27 287.82 246.75 300.75 257.25C313.67 267.76 310.96 254.64 303.25 249.75C295.53 244.87 290.55 238.52 283.75 233.25C276.95 227.98 271.19 222.19 264 218C263.39 220.57 260.39 222.08 261 225Z" fill="#FC9700"/>
<path d="M237 227C243.08 226.67 247.11 228.24 251 223C247.51 226.7 241.31 226.3 237 227Z" fill="#FC9700"/>
<path d="M284 224C285.53 225.16 287.8 226.91 289 228C287.58 225.8 286.49 225.01 284 224Z" fill="#FC9700"/>
<path d="M169 230C172.02 228.07 177.15 230.66 179 227C176.73 225.4 172.87 225.77 170 225C169.48 226.88 171.43 226.87 172 228C169.77 226.58 169.5 229.66 169 230Z" fill="#FC9700"/>
<path d="M372 270C372.97 268.61 374.92 269.66 376 269C378.5 257.72 389.66 254.76 399 252C393.37 249.52 386.57 249.97 381.25 245.75C375.92 241.54 377.45 233.49 374 229C374.5 242.8 363.29 251.22 350 252C360.75 254.44 369.74 257.86 372 270Z" fill="#FC9700"/>
<path d="M272 264C274.68 265.99 277.87 267.67 280.7 269.3C283.52 270.94 285.46 276.17 289 276C292.48 272.82 298.84 270.46 299 265C284.55 254.36 272.17 238.58 256 230C249.85 236.92 246.14 243.56 254.75 248.25C263.37 252.93 265.39 257.82 272 264Z" fill="#FC9700"/>
<path d="M130 231C124.4 229.39 120.7 236.39 126.33 238.67C131.95 240.95 135.78 232.66 130 231Z" fill="#FC9700"/>
<path d="M242 237C235.47 234.27 226.04 237.41 220.25 242.25C214.45 247.08 206.85 247.94 203.76 256.75C200.66 265.57 211.03 256.66 215.97 251.97C220.92 247.28 231.34 244.91 238 244C238.96 241.43 241.01 239.58 242 237Z" fill="#FC9700"/>
<path d="M171 243C168.34 246.49 165.73 251.71 160 251C161.58 256.54 170.4 257.14 171 264C171.96 258.43 176.36 254.42 182 254C178.74 249.83 171.94 249.51 171 243Z" fill="#FC9700"/>
<path d="M213 266C222.53 262.04 220.06 258.33 230.78 254.78C241.49 251.22 230.22 245.03 224.08 251.08C217.95 257.14 211.74 257.48 213 266Z" fill="#FC9700"/>
<path d="M309 279C309.34 280.15 310.99 280.97 311 284C311 287.03 309.4 287.72 309 289C309.27 302.62 296.9 311.02 291 321C322.91 320.05 342.45 283.53 331 255C320.48 260.81 306.92 265.36 309 279Z" fill="#FC9700"/>
<path d="M92 268C93.98 266.36 96.11 264.63 98 263C98.03 261.86 99.53 261.28 99 260C95.58 261.49 93.83 265.41 92 268Z" fill="#FC9700"/>
<path d="M136 304C149.34 301.53 137.32 284.94 149.08 277.08C160.84 269.22 141.36 260.77 132 261C122.64 261.23 105.6 264.13 102 274C117.64 275.39 134.35 287.53 136 304Z" fill="#FC9700"/>
<path d="M248 291C249.19 288.36 249.37 288.43 252 286C255.43 281.1 264.2 273.74 259 269C257.5 268.17 251.24 268.68 248.25 273.25C245.26 277.82 240.51 280.22 237 284C240.32 276.96 248.56 272.51 253 266C248.88 268.33 243.15 275.7 239.75 277.75C236.36 279.8 230.19 290.88 226.78 287.22C223.37 283.56 234.77 277.05 237.25 274.25C239.73 271.45 248.12 266.43 249 262C223.11 265.22 207.39 280.69 191.75 300.75C176.12 320.82 174.6 351.01 172 376C221.31 372.57 267.26 326.58 268 276C258.94 280.16 255.28 293.79 247.75 300.74C240.21 307.69 246.91 292.44 248 291ZM232 276C231 279.34 227.37 283.06 224 284C226.21 281.04 229.02 278.1 232 276Z" fill="#FC9700"/>
<path d="M192 263C187.37 260.93 181.71 268.27 187.33 271.67C192.95 275.07 197.35 265.39 192 263Z" fill="#FC9700"/>
<path d="M289 276C285.46 276.17 283.52 270.94 280.7 269.3C277.87 267.67 274.68 265.99 272 264C275.78 267.53 284.09 277.57 289 276Z" fill="#FC9700"/>
<path d="M259 269C257.39 267.53 255.38 265.67 253 266C248.56 272.51 240.32 276.96 237 284C240.51 280.22 245.26 277.82 248.25 273.25C251.24 268.68 257.5 268.17 259 269Z" fill="#FC9700"/>
<path d="M395 267C390.16 265.84 387.51 273.78 393 275C398.48 276.21 399.48 268.07 395 267Z" fill="#FC9700"/>
<path d="M372 270C373.28 272.72 371.59 278.42 375 279C376.31 275.86 375.23 272.27 376 269C374.92 269.66 372.97 268.61 372 270Z" fill="#FC9700"/>
<path d="M186 286C180.46 281.72 171.75 278.16 169 271C168.9 279.05 160.47 282.37 154 285C161.38 287.03 168.56 292.86 171 299C170.84 290.54 178.59 286.65 186 286Z" fill="#FC9700"/>
<path d="M232 276C229.02 278.1 226.21 281.04 224 284C227.37 283.06 231 279.34 232 276Z" fill="#FC9700"/>
<path d="M356 276C351.32 278.2 348.75 284.45 343 286C349.68 286.47 351.09 293.39 356 295C354.3 287.57 365.21 289.68 365 284C360.32 284.77 355.64 280.73 356 276Z" fill="#FC9700"/>
<path d="M309 289C309.4 287.72 311 287.03 311 284C310.99 280.97 309.34 280.15 309 279C309.59 282.84 309.62 285.13 309 289Z" fill="#FC9700"/>
<path d="M279 322C281.17 321.69 283.69 315.11 285.25 313.25C286.82 311.39 290.68 307.07 292 305C295.26 296.86 299.16 290.15 298 281C286.77 280.69 287.07 292.93 285.78 300.78C284.48 308.62 276.27 313.96 276 322C277 321.99 278 322.01 279 322Z" fill="#FC9700"/>
<path d="M252 403C252.65 403.48 253.63 404.15 254 405C251.26 405.82 245.13 403.9 247 401C245.27 387.16 232.12 383.79 221 380C209.88 376.21 196.13 398.54 192 384C180.8 385.29 170.37 389.45 159 390C160.02 377.18 168.11 359.11 160.75 347.25C153.39 335.39 135.56 333.35 125 339C117.25 330.45 128.26 327.22 136 327C135.25 327.25 140.8 322.6 144 325C143.92 326.26 141.94 325.56 142 327C150.85 326.91 157.7 332.37 165 336C165.98 329.52 168.14 323.37 170.22 317.22C172.29 311.08 159.66 309.52 155 310C150.34 310.48 138.83 309.39 136.78 315.78C134.72 322.16 125.6 324.15 126 316C126.4 307.85 125.32 302.42 121.92 296.08C118.52 289.73 115.33 287.58 109.07 284.93C102.81 282.27 95.51 283.79 89 282C88.76 302.5 98 324.32 108.22 342.78C118.45 361.23 130.32 373.98 145.75 388.25C161.18 402.51 178.96 411.55 198.98 419.02C219 426.5 249.31 430.7 271.78 428.78C294.25 426.86 318.11 420.24 337.31 410.31C356.5 400.37 372.85 391.04 383 373C374.11 365.82 360.63 364.04 350.08 368.08C339.52 372.11 336.18 380.58 330 389C323.3 384.9 325.2 374.86 316.23 370.77C307.26 366.68 299.17 362.49 289 366C289.02 370.29 291.98 373.74 292 378C299.82 380.32 309.29 383.33 312.23 392.77C315.17 402.21 303.78 398.25 297.75 391.25C291.71 384.26 279.12 387.4 271.03 388.03C262.93 388.65 258.08 402.85 252 403Z" fill="#FC9700"/>
<path d="M248 291C249.18 289.45 250.75 287.78 252 286C249.37 288.43 249.19 288.36 248 291Z" fill="#FC9700"/>
<path d="M276 300C275.77 304.3 278.07 307.19 278 309C280.76 304.15 286.15 298.23 282.97 291.03C279.8 283.83 276.31 294.26 276 300Z" fill="#FC9700"/>
<path d="M412 333C424.04 325.38 423.18 308.19 411.08 298.92C398.98 289.65 381.21 287.28 370 299C375.94 306.93 382.34 313.38 391.77 315.23C401.2 317.08 407.45 325.9 412 333Z" fill="#FC9700"/>
<path d="M278 309C278.07 307.19 275.77 304.3 276 300C274.6 305.18 269.69 307.69 270.03 313.97C270.36 320.25 276.56 311.53 278 309Z" fill="#FC9700"/>
<path d="M355 304C351.29 309.03 347.29 315.87 339 316C344.74 318.99 352.09 323.5 355 330C354.78 320.19 366.99 321.24 369 315C362.29 315.09 356.14 310.83 355 304Z" fill="#FC9700"/>
<path d="M279 322C283.22 321.96 290.47 308.21 292 305C290.68 307.07 286.82 311.39 285.25 313.25C283.69 315.11 281.17 321.69 279 322Z" fill="#FC9700"/>
<path d="M332 319C328.09 316.42 323.24 322.69 327.33 325.67C331.42 328.65 335.13 321.06 332 319Z" fill="#FC9700"/>
<path d="M320 355C320.03 354.87 320.96 363.01 320 361C322.08 364.68 328.31 365.39 329 370C337.56 366.42 343.68 357.72 353.99 356.99C364.3 356.26 375.12 354.86 384.25 362.75C393.38 370.64 397.06 359.67 403 352C403.81 350.5 406.2 346.15 406 343C400.49 314.73 355.93 319.98 351 346C346.95 346.83 342.3 344.6 343 340C332.83 339.47 325.14 347.35 320 355Z" fill="#FC9700"/>
<path d="M136 327C137.98 326.94 140.03 326.89 142 327C141.94 325.56 143.92 326.26 144 325C140.8 322.6 135.25 327.25 136 327Z" fill="#FC9700"/>
<path d="M310 328C306.75 331.92 300.14 334.98 298 339C303.6 339.19 307.17 343.51 307 349C311.6 346.33 313.25 339.24 319 337C314.22 335.66 309.8 333.6 310 328Z" fill="#FC9700"/>
<path d="M286 341C282.59 337.56 278.53 331.96 274 330C274.9 336.39 267.36 336.24 265 340C272.3 340.24 272.04 348.46 277 351C277.57 346.09 280.49 341.04 286 341Z" fill="#FC9700"/>
<path d="M403 352C405.85 348.32 407.14 347.61 406 343C406.2 346.15 403.81 350.5 403 352Z" fill="#FC9700"/>
<path d="M281 376C280.67 367.44 272.71 360.51 266.25 355.75C259.78 351 246.73 346.9 241.25 354.25C235.77 361.6 227.46 363.18 223 370C235.68 371.43 245.08 380.89 254 388C259.72 380.04 270.86 375.49 281 376Z" fill="#FC9700"/>
<path d="M320 361C320.96 363.01 320.03 354.87 320 355C317.29 359.03 316.79 357.89 320 361Z" fill="#FC9700"/>
<path d="M252 403C250.23 403.04 248.12 402.5 247 401C245.13 403.9 251.26 405.82 254 405C253.63 404.15 252.65 403.48 252 403Z" fill="#FC9700"/>
</svg>
